Exo-Demibold.ufo
<glyph name="percent" format="1">
  <advance width="962"/>
  <unicode hex="0025"/>
  <note>
    GF Latin Plus glyph
  </note>
  <outline>
    <contour>
      <point x="637" y="152" type="curve" smooth="yes"/>
      <point x="637" y="238" type="line" smooth="yes"/>
      <point x="637" y="294"/>
      <point x="661" y="306"/>
      <point x="706" y="306" type="curve" smooth="yes"/>
      <point x="777" y="306" type="line" smooth="yes"/>
      <point x="828" y="306"/>
      <point x="846" y="289"/>
      <point x="846" y="238" type="curve" smooth="yes"/>
      <point x="846" y="152" type="line" smooth="yes"/>
      <point x="846" y="102"/>
      <point x="827" y="83"/>
      <point x="775" y="83" type="curve" smooth="yes"/>
      <point x="704" y="83" type="line" smooth="yes"/>
      <point x="653" y="83"/>
      <point x="637" y="103"/>
    </contour>
    <contour>
      <point x="557" y="134" type="line" smooth="yes"/>
      <point x="557" y="49"/>
      <point x="591" y="3"/>
      <point x="689" y="3" type="curve" smooth="yes"/>
      <point x="791" y="3" type="line" smooth="yes"/>
      <point x="892" y="3"/>
      <point x="926" y="49"/>
      <point x="926" y="134" type="curve" smooth="yes"/>
      <point x="926" y="255" type="line" smooth="yes"/>
      <point x="926" y="340"/>
      <point x="891" y="386"/>
      <point x="793" y="386" type="curve" smooth="yes"/>
      <point x="691" y="386" type="line" smooth="yes"/>
      <point x="590" y="386"/>
      <point x="557" y="340"/>
      <point x="557" y="255" type="curve" smooth="yes"/>
    </contour>
    <contour>
      <point x="213" y="0" type="line"/>
      <point x="298" y="0" type="line"/>
      <point x="742" y="732" type="line"/>
      <point x="660" y="732" type="line"/>
    </contour>
    <contour>
      <point x="118" y="498" type="curve" smooth="yes"/>
      <point x="118" y="584" type="line" smooth="yes"/>
      <point x="118" y="640"/>
      <point x="142" y="652"/>
      <point x="187" y="652" type="curve" smooth="yes"/>
      <point x="259" y="652" type="line" smooth="yes"/>
      <point x="309" y="652"/>
      <point x="326" y="635"/>
      <point x="326" y="584" type="curve" smooth="yes"/>
      <point x="326" y="498" type="line" smooth="yes"/>
      <point x="326" y="448"/>
      <point x="309" y="429"/>
      <point x="257" y="429" type="curve" smooth="yes"/>
      <point x="185" y="429" type="line" smooth="yes"/>
      <point x="134" y="429"/>
      <point x="118" y="449"/>
    </contour>
    <contour>
      <point x="38" y="480" type="line" smooth="yes"/>
      <point x="38" y="395"/>
      <point x="72" y="349"/>
      <point x="170" y="349" type="curve" smooth="yes"/>
      <point x="271" y="349" type="line" smooth="yes"/>
      <point x="372" y="349"/>
      <point x="406" y="395"/>
      <point x="406" y="480" type="curve" smooth="yes"/>
      <point x="406" y="601" type="line" smooth="yes"/>
      <point x="406" y="686"/>
      <point x="371" y="732"/>
      <point x="273" y="732" type="curve" smooth="yes"/>
      <point x="172" y="732" type="line" smooth="yes"/>
      <point x="71" y="732"/>
      <point x="38" y="686"/>
      <point x="38" y="601" type="curve" smooth="yes"/>
    </contour>
  </outline>
</glyph>
<glyph name="ampersand" format="1">
  <advance width="689"/>
  <unicode hex="0026"/>
  <note>
    GF Latin Plus glyph
  </note>
  <outline>
    <contour>
      <point x="252" y="108" type="curve" smooth="yes"/>
      <point x="193" y="108"/>
      <point x="155" y="148"/>
      <point x="155" y="205" type="curve" smooth="yes"/>
      <point x="155" y="241"/>
      <point x="167" y="274"/>
      <point x="208" y="309" type="curve" smooth="yes"/>
      <point x="250" y="347" type="line"/>
      <point x="377" y="179" type="line"/>
      <point x="350" y="152" type="line" smooth="yes"/>
      <point x="314" y="118"/>
      <point x="285" y="108"/>
    </contour>
    <contour>
      <point x="231" y="-5" type="curve" smooth="yes"/>
      <point x="298" y="-5"/>
      <point x="349" y="13"/>
      <point x="407" y="64" type="curve" smooth="yes"/>
      <point x="442" y="96" type="line"/>
      <point x="517" y="0" type="line"/>
      <point x="646" y="0" type="line"/>
      <point x="521" y="166" type="line"/>
      <point x="582" y="225" type="line"/>
      <point x="651" y="324" type="line"/>
      <point x="605" y="379" type="line"/>
      <point x="460" y="246" type="line"/>
      <point x="300" y="465" type="line" smooth="yes"/>
      <point x="266" y="511"/>
      <point x="252" y="540"/>
      <point x="252" y="567" type="curve" smooth="yes"/>
      <point x="252" y="609"/>
      <point x="283" y="627"/>
      <point x="333" y="627" type="curve" smooth="yes"/>
      <point x="496" y="627" type="line"/>
      <point x="496" y="717" type="line"/>
      <point x="454" y="727"/>
      <point x="388" y="736"/>
      <point x="310" y="736" type="curve" smooth="yes"/>
      <point x="210" y="736"/>
      <point x="128" y="698"/>
      <point x="128" y="594" type="curve" smooth="yes"/>
      <point x="128" y="557"/>
      <point x="134" y="516"/>
      <point x="176" y="455" type="curve" smooth="yes"/>
      <point x="191" y="432" type="line"/>
      <point x="129" y="379" type="line" smooth="yes"/>
      <point x="67" y="327"/>
      <point x="37" y="263"/>
      <point x="37" y="191" type="curve" smooth="yes"/>
      <point x="37" y="74"/>
      <point x="119" y="-5"/>
    </contour>
  </outline>
</glyph>
<glyph name="parenright" format="1">
  <advance width="372"/>
  <unicode hex="0029"/>
  <note>
    GF Latin Plus glyph
  </note>
  <outline>
    <contour>
      <point x="18" y="-210" type="curve"/>
      <point x="129" y="-210" type="line"/>
      <point x="228" y="-73"/>
      <point x="306" y="91"/>
      <point x="306" y="325" type="curve" smooth="yes"/>
      <point x="306" y="567"/>
      <point x="230" y="724"/>
      <point x="129" y="860" type="curve"/>
      <point x="18" y="860" type="line"/>
      <point x="121" y="688"/>
      <point x="182" y="538"/>
      <point x="182" y="325" type="curve" smooth="yes"/>
      <point x="182" y="109"/>
      <point x="110" y="-57"/>
    </contour>
  </outline>
</glyph>
<glyph name="asterisk" format="1">
  <advance width="439"/>
  <unicode hex="002A"/>
  <note>
    GF Latin Plus glyph
  </note>
  <outline>
    <contour>
      <point x="44" y="577" type="line"/>
      <point x="188" y="571" type="line"/>
      <point x="185" y="636" type="line"/>
      <point x="44" y="624" type="line"/>
    </contour>
    <contour>
      <point x="177" y="722" type="line"/>
      <point x="224" y="588" type="line"/>
      <point x="285" y="612" type="line"/>
      <point x="222" y="737" type="line"/>
    </contour>
    <contour>
      <point x="252" y="563" type="line"/>
      <point x="294" y="512" type="line"/>
      <point x="395" y="607" type="line"/>
      <point x="368" y="645" type="line"/>
    </contour>
    <contour>
      <point x="202" y="474" type="line"/>
      <point x="325" y="406" type="line"/>
      <point x="353" y="443" type="line"/>
      <point x="237" y="530" type="line"/>
    </contour>
    <contour>
      <point x="106" y="414" type="line"/>
      <point x="150" y="400" type="line"/>
      <point x="198" y="535" type="line"/>
      <point x="134" y="551" type="line"/>
    </contour>
  </outline>
</glyph>
<glyph name="comma" format="1">
  <advance width="222"/>
  <unicode hex="002C"/>
  <note>
    GF Latin Plus glyph
  </note>
  <outline>
    <contour>
      <point x="57" y="28" type="line" smooth="yes"/>
      <point x="57" y="15"/>
      <point x="65" y="8"/>
      <point x="76" y="8" type="curve" smooth="yes"/>
      <point x="85" y="8" type="line"/>
      <point x="85" y="-22" type="line" smooth="yes"/>
      <point x="85" y="-37"/>
      <point x="78" y="-41"/>
      <point x="60" y="-41" type="curve"/>
      <point x="60" y="-80" type="line"/>
      <point x="60" y="-80"/>
      <point x="79" y="-85"/>
      <point x="100" y="-85" type="curve" smooth="yes"/>
      <point x="129" y="-85"/>
      <point x="165" y="-75"/>
      <point x="165" y="-22" type="curve" smooth="yes"/>
      <point x="165" y="110" type="line" smooth="yes"/>
      <point x="165" y="122"/>
      <point x="160" y="131"/>
      <point x="146" y="131" type="curve" smooth="yes"/>
      <point x="76" y="131" type="line" smooth="yes"/>
      <point x="64" y="131"/>
      <point x="57" y="124"/>
      <point x="57" y="110" type="curve" smooth="yes"/>
    </contour>
  </outline>
</glyph>
<glyph name="period" format="1">
  <advance width="222"/>
  <unicode hex="002E"/>
  <note>
    GF Latin Plus glyph
  </note>
  <outline>
    <contour>
      <point x="57" y="17" type="line" smooth="yes"/>
      <point x="57" y="6"/>
      <point x="65" y="-1"/>
      <point x="76" y="-1" type="curve" smooth="yes"/>
      <point x="147" y="-1" type="line" smooth="yes"/>
      <point x="158" y="-1"/>
      <point x="166" y="3"/>
      <point x="166" y="17" type="curve" smooth="yes"/>
      <point x="166" y="112" type="line" smooth="yes"/>
      <point x="166" y="124"/>
      <point x="161" y="131"/>
      <point x="147" y="131" type="curve" smooth="yes"/>
      <point x="76" y="131" type="line" smooth="yes"/>
      <point x="63" y="131"/>
      <point x="57" y="124"/>
      <point x="57" y="112" type="curve" smooth="yes"/>
    </contour>
  </outline>
</glyph>
<glyph name="two" format="1">
  <advance width="589"/>
  <unicode hex="0032"/>
  <note>
    GF Latin Plus glyph
  </note>
  <outline>
    <contour>
      <point x="69" y="627" type="line"/>
      <point x="274" y="627" type="line" smooth="yes"/>
      <point x="372" y="627"/>
      <point x="401" y="588"/>
      <point x="401" y="528" type="curve" smooth="yes"/>
      <point x="401" y="463"/>
      <point x="372" y="415"/>
      <point x="305" y="351" type="curve" smooth="yes"/>
      <point x="49" y="100" type="line"/>
      <point x="49" y="0" type="line"/>
      <point x="549" y="0" type="line"/>
      <point x="549" y="112" type="line"/>
      <point x="214" y="112" type="line"/>
      <point x="401" y="295" type="line" smooth="yes"/>
      <point x="485" y="377"/>
      <point x="525" y="446"/>
      <point x="525" y="547" type="curve" smooth="yes"/>
      <point x="525" y="669"/>
      <point x="470" y="744"/>
      <point x="299" y="744" type="curve" smooth="yes"/>
      <point x="208" y="744"/>
      <point x="131" y="733"/>
      <point x="69" y="724" type="curve"/>
    </contour>
  </outline>
</glyph>
<glyph name="three" format="1">
  <advance width="581"/>
  <unicode hex="0033"/>
  <note>
    GF Latin Plus glyph
  </note>
  <outline>
    <contour>
      <point x="59" y="627" type="line"/>
      <point x="266" y="627" type="line" smooth="yes"/>
      <point x="354" y="627"/>
      <point x="392" y="597"/>
      <point x="392" y="537" type="curve" smooth="yes"/>
      <point x="392" y="503" type="line" smooth="yes"/>
      <point x="392" y="450"/>
      <point x="352" y="431"/>
      <point x="288" y="428" type="curve" smooth="yes"/>
      <point x="109" y="419" type="line"/>
      <point x="109" y="325" type="line"/>
      <point x="293" y="317" type="line" smooth="yes"/>
      <point x="350" y="315"/>
      <point x="401" y="294"/>
      <point x="401" y="232" type="curve" smooth="yes"/>
      <point x="401" y="195" type="line" smooth="yes"/>
      <point x="401" y="128"/>
      <point x="354" y="111"/>
      <point x="272" y="111" type="curve" smooth="yes"/>
      <point x="40" y="111" type="line"/>
      <point x="40" y="12" type="line"/>
      <point x="114" y="1"/>
      <point x="211" y="-6"/>
      <point x="317" y="-6" type="curve" smooth="yes"/>
      <point x="448" y="-6"/>
      <point x="526" y="57"/>
      <point x="526" y="173" type="curve" smooth="yes"/>
      <point x="526" y="216" type="line" smooth="yes"/>
      <point x="526" y="306"/>
      <point x="468" y="358"/>
      <point x="417" y="372" type="curve"/>
      <point x="465" y="386"/>
      <point x="515" y="425"/>
      <point x="515" y="508" type="curve" smooth="yes"/>
      <point x="515" y="565" type="line" smooth="yes"/>
      <point x="515" y="679"/>
      <point x="445" y="743"/>
      <point x="315" y="744" type="curve" smooth="yes"/>
      <point x="216" y="746"/>
      <point x="129" y="736"/>
      <point x="59" y="726" type="curve"/>
    </contour>
  </outline>
</glyph>
<glyph name="C" format="1">
  <advance width="584"/>
  <unicode hex="0043"/>
  <note>
    GF Latin Plus glyph
  </note>
  <outline>
    <contour>
      <point x="50" y="372" type="curve" smooth="yes"/>
      <point x="50" y="54"/>
      <point x="142" y="-6"/>
      <point x="315" y="-6" type="curve" smooth="yes"/>
      <point x="408" y="-6"/>
      <point x="485" y="4"/>
      <point x="542" y="21" type="curve"/>
      <point x="542" y="116" type="line"/>
      <point x="503" y="111"/>
      <point x="442" y="105"/>
      <point x="342" y="105" type="curve" smooth="yes"/>
      <point x="212" y="105"/>
      <point x="174" y="151"/>
      <point x="174" y="370" type="curve" smooth="yes"/>
      <point x="174" y="592"/>
      <point x="219" y="634"/>
      <point x="343" y="634" type="curve" smooth="yes"/>
      <point x="427" y="634"/>
      <point x="507" y="625"/>
      <point x="542" y="618" type="curve"/>
      <point x="542" y="713" type="line"/>
      <point x="490" y="729"/>
      <point x="404" y="745"/>
      <point x="318" y="745" type="curve" smooth="yes"/>
      <point x="145" y="745"/>
      <point x="50" y="674"/>
    </contour>
    <contour>
      <point x="318" y="810" type="move" name="top"/>
    </contour>
    <contour>
      <point x="336" y="-150" type="move" name="bottom"/>
    </contour>
  </outline>
</glyph>
<glyph name="D" format="1">
  <advance width="676"/>
  <unicode hex="0044"/>
  <note>
    GF Latin Plus glyph
  </note>
  <outline>
    <contour>
      <point x="192" y="111" type="line"/>
      <point x="192" y="627" type="line"/>
      <point x="362" y="627" type="line" smooth="yes"/>
      <point x="457" y="627"/>
      <point x="503" y="571"/>
      <point x="503" y="369" type="curve" smooth="yes"/>
      <point x="503" y="204"/>
      <point x="462" y="111"/>
      <point x="362" y="111" type="curve" smooth="yes"/>
    </contour>
    <contour>
      <point x="69" y="0" type="line"/>
      <point x="374" y="0" type="line" smooth="yes"/>
      <point x="542" y="0"/>
      <point x="626" y="126"/>
      <point x="626" y="369" type="curve" smooth="yes"/>
      <point x="626" y="595"/>
      <point x="566" y="738"/>
      <point x="374" y="738" type="curve" smooth="yes"/>
      <point x="69" y="738" type="line"/>
    </contour>
    <contour>
      <point x="324" y="810" type="move" name="top"/>
    </contour>
    <contour>
      <point x="298" y="-150" type="move" name="bottom"/>
    </contour>
  </outline>
</glyph>
<glyph name="E" format="1">
  <advance width="594"/>
  <unicode hex="0045"/>
  <note>
    GF Latin Plus glyph
  </note>
  <outline>
    <contour>
      <point x="69" y="151" type="line" smooth="yes"/>
      <point x="69" y="8"/>
      <point x="175" y="-5"/>
      <point x="240" y="-5" type="curve" smooth="yes"/>
      <point x="299" y="-5"/>
      <point x="493" y="1"/>
      <point x="544" y="8" type="curve"/>
      <point x="544" y="111" type="line"/>
      <point x="264" y="111" type="line" smooth="yes"/>
      <point x="227" y="111"/>
      <point x="192" y="125"/>
      <point x="192" y="185" type="curve" smooth="yes"/>
      <point x="192" y="312" type="line"/>
      <point x="499" y="319" type="line"/>
      <point x="499" y="416" type="line"/>
      <point x="192" y="423" type="line"/>
      <point x="192" y="554" type="line" smooth="yes"/>
      <point x="192" y="602"/>
      <point x="220" y="624"/>
      <point x="265" y="624" type="curve" smooth="yes"/>
      <point x="544" y="624" type="line"/>
      <point x="544" y="727" type="line"/>
      <point x="504" y="731"/>
      <point x="328" y="738"/>
      <point x="229" y="738" type="curve" smooth="yes"/>
      <point x="154" y="739"/>
      <point x="69" y="702"/>
      <point x="69" y="577" type="curve" smooth="yes"/>
    </contour>
    <contour>
      <point x="312" y="810" type="move" name="top"/>
    </contour>
    <contour>
      <point x="534" y="8" type="move" name="ogonek"/>
    </contour>
    <contour>
      <point x="328" y="-150" type="move" name="bottom"/>
    </contour>
  </outline>
</glyph>
<glyph name="H" format="1">
  <advance width="696"/>
  <unicode hex="0048"/>
  <note>
    GF Latin Plus glyph
  </note>
  <outline>
    <contour>
      <point x="69" y="0" type="line"/>
      <point x="192" y="0" type="line"/>
      <point x="192" y="308" type="line"/>
      <point x="503" y="308" type="line"/>
      <point x="503" y="0" type="line"/>
      <point x="627" y="0" type="line"/>
      <point x="627" y="738" type="line"/>
      <point x="503" y="738" type="line"/>
      <point x="503" y="419" type="line"/>
      <point x="192" y="419" type="line"/>
      <point x="192" y="738" type="line"/>
      <point x="69" y="738" type="line"/>
    </contour>
    <contour>
      <point x="348" y="810" type="move" name="top"/>
    </contour>
    <contour>
      <point x="348" y="-150" type="move" name="bottom"/>
    </contour>
  </outline>
</glyph>
<glyph name="O" format="1">
  <advance width="695"/>
  <unicode hex="004F"/>
  <note>
    GF Latin Plus glyph
  </note>
  <outline>
    <contour>
      <point x="174" y="367" type="curve" smooth="yes"/>
      <point x="174" y="599"/>
      <point x="223" y="634"/>
      <point x="347" y="634" type="curve" smooth="yes"/>
      <point x="476" y="634"/>
      <point x="521" y="599"/>
      <point x="521" y="367" type="curve" smooth="yes"/>
      <point x="521" y="145"/>
      <point x="477" y="105"/>
      <point x="347" y="105" type="curve" smooth="yes"/>
      <point x="215" y="105"/>
      <point x="174" y="145"/>
    </contour>
    <contour>
      <point x="50" y="367" type="curve" smooth="yes"/>
      <point x="50" y="49"/>
      <point x="150" y="-6"/>
      <point x="347" y="-6" type="curve" smooth="yes"/>
      <point x="545" y="-6"/>
      <point x="645" y="49"/>
      <point x="645" y="367" type="curve" smooth="yes"/>
      <point x="645" y="686"/>
      <point x="546" y="745"/>
      <point x="347" y="745" type="curve" smooth="yes"/>
      <point x="152" y="745"/>
      <point x="50" y="686"/>
    </contour>
    <contour>
      <point x="347" y="810" type="move" name="top"/>
    </contour>
    <contour>
      <point x="412" y="0" type="move" name="ogonek"/>
    </contour>
    <contour>
      <point x="347" y="-150" type="move" name="bottom"/>
    </contour>
  </outline>
</glyph>
<glyph name="P" format="1">
  <advance width="615"/>
  <unicode hex="0050"/>
  <note>
    GF Latin Plus glyph
  </note>
  <outline>
    <contour>
      <point x="192" y="349" type="line"/>
      <point x="192" y="627" type="line"/>
      <point x="362" y="627" type="line" smooth="yes"/>
      <point x="415" y="627"/>
      <point x="455" y="594"/>
      <point x="455" y="490" type="curve" smooth="yes"/>
      <point x="455" y="385"/>
      <point x="416" y="349"/>
      <point x="358" y="349" type="curve" smooth="yes"/>
    </contour>
    <contour>
      <point x="69" y="0" type="line"/>
      <point x="192" y="0" type="line"/>
      <point x="192" y="252" type="line"/>
      <point x="229" y="247"/>
      <point x="331" y="237"/>
      <point x="376" y="237" type="curve" smooth="yes"/>
      <point x="464" y="237"/>
      <point x="579" y="272"/>
      <point x="579" y="491" type="curve" smooth="yes"/>
      <point x="579" y="708"/>
      <point x="466" y="738"/>
      <point x="374" y="738" type="curve" smooth="yes"/>
      <point x="69" y="738" type="line"/>
    </contour>
    <contour>
      <point x="299" y="810" type="move" name="top"/>
    </contour>
  </outline>
</glyph>
<glyph name="S" format="1">
  <advance width="585"/>
  <unicode hex="0053"/>
  <note>
    GF Latin Plus glyph
  </note>
  <outline>
    <contour>
      <point x="51" y="504" type="line" smooth="yes"/>
      <point x="51" y="362"/>
      <point x="126" y="309"/>
      <point x="261" y="309" type="curve" smooth="yes"/>
      <point x="330" y="309" type="line" smooth="yes"/>
      <point x="387" y="309"/>
      <point x="417" y="280"/>
      <point x="417" y="228" type="curve" smooth="yes"/>
      <point x="417" y="193" type="line" smooth="yes"/>
      <point x="417" y="122"/>
      <point x="362" y="105"/>
      <point x="281" y="105" type="curve" smooth="yes"/>
      <point x="205" y="105"/>
      <point x="114" y="108"/>
      <point x="58" y="113" type="curve"/>
      <point x="58" y="16" type="line"/>
      <point x="116" y="3"/>
      <point x="216" y="-6"/>
      <point x="287" y="-6" type="curve" smooth="yes"/>
      <point x="431" y="-6"/>
      <point x="535" y="31"/>
      <point x="535" y="196" type="curve" smooth="yes"/>
      <point x="535" y="243" type="line" smooth="yes"/>
      <point x="535" y="349"/>
      <point x="474" y="427"/>
      <point x="345" y="427" type="curve" smooth="yes"/>
      <point x="268" y="427" type="line" smooth="yes"/>
      <point x="204" y="427"/>
      <point x="169" y="450"/>
      <point x="169" y="512" type="curve" smooth="yes"/>
      <point x="169" y="536" type="line" smooth="yes"/>
      <point x="169" y="614"/>
      <point x="217" y="633"/>
      <point x="295" y="633" type="curve" smooth="yes"/>
      <point x="359" y="633"/>
      <point x="440" y="628"/>
      <point x="500" y="624" type="curve"/>
      <point x="500" y="721" type="line"/>
      <point x="447" y="732"/>
      <point x="356" y="744"/>
      <point x="281" y="744" type="curve" smooth="yes"/>
      <point x="133" y="744"/>
      <point x="51" y="684"/>
      <point x="51" y="542" type="curve" smooth="yes"/>
    </contour>
    <contour>
      <point x="287" y="810" type="move" name="top"/>
    </contour>
    <contour>
      <point x="287" y="-150" type="move" name="bottom"/>
    </contour>
  </outline>
</glyph>
<glyph name="Z" format="1">
  <advance width="569"/>
  <unicode hex="005A"/>
  <note>
    GF Latin Plus glyph
  </note>
  <outline>
    <contour>
      <point x="40" y="0" type="line"/>
      <point x="532" y="0" type="line"/>
      <point x="532" y="111" type="line"/>
      <point x="191" y="111" type="line"/>
      <point x="532" y="639" type="line"/>
      <point x="532" y="738" type="line"/>
      <point x="40" y="738" type="line"/>
      <point x="40" y="627" type="line"/>
      <point x="382" y="627" type="line"/>
      <point x="40" y="100" type="line"/>
    </contour>
    <contour>
      <point x="281" y="810" type="move" name="top"/>
    </contour>
    <contour>
      <point x="281" y="-150" type="move" name="bottom"/>
    </contour>
  </outline>
</glyph>
<glyph name="c" format="1">
  <advance width="490"/>
  <unicode hex="0063"/>
  <note>
    GF Latin Plus glyph
  </note>
  <outline>
    <contour>
      <point x="46" y="266" type="curve" smooth="yes"/>
      <point x="46" y="51"/>
      <point x="139" y="-6"/>
      <point x="268" y="-6" type="curve" smooth="yes"/>
      <point x="337" y="-6"/>
      <point x="413" y="5"/>
      <point x="462" y="18" type="curve"/>
      <point x="462" y="88" type="line"/>
      <point x="309" y="88" type="line" smooth="yes"/>
      <point x="213" y="88"/>
      <point x="170" y="118"/>
      <point x="170" y="266" type="curve" smooth="yes"/>
      <point x="170" y="417"/>
      <point x="213" y="451"/>
      <point x="308" y="451" type="curve" smooth="yes"/>
      <point x="454" y="451" type="line"/>
      <point x="454" y="522" type="line"/>
      <point x="392" y="537"/>
      <point x="332" y="543"/>
      <point x="271" y="543" type="curve" smooth="yes"/>
      <point x="130" y="543"/>
      <point x="46" y="486"/>
    </contour>
    <contour>
      <point x="270" y="650" type="move" name="top"/>
    </contour>
    <contour>
      <point x="270" y="-150" type="move" name="bottom"/>
    </contour>
  </outline>
</glyph>
<glyph name="d" format="1">
  <advance width="580"/>
  <unicode hex="0064"/>
  <note>
    GF Latin Plus glyph
  </note>
  <outline>
    <contour>
      <point x="170" y="269" type="curve" smooth="yes"/>
      <point x="170" y="413"/>
      <point x="203" y="450"/>
      <point x="287" y="450" type="curve" smooth="yes"/>
      <point x="328" y="450"/>
      <point x="361" y="439"/>
      <point x="395" y="427" type="curve"/>
      <point x="395" y="129" type="line"/>
      <point x="367" y="113"/>
      <point x="328" y="94"/>
      <point x="280" y="94" type="curve" smooth="yes"/>
      <point x="201" y="94"/>
      <point x="170" y="134"/>
    </contour>
    <contour>
      <point x="46" y="263" type="curve" smooth="yes"/>
      <point x="46" y="71"/>
      <point x="111" y="-6"/>
      <point x="238" y="-6" type="curve" smooth="yes"/>
      <point x="295" y="-6"/>
      <point x="362" y="23"/>
      <point x="395" y="52" type="curve"/>
      <point x="416" y="0" type="line"/>
      <point x="519" y="0" type="line"/>
      <point x="519" y="763" type="line"/>
      <point x="395" y="763" type="line"/>
      <point x="395" y="516" type="line"/>
      <point x="356" y="530"/>
      <point x="301" y="543"/>
      <point x="248" y="543" type="curve" smooth="yes"/>
      <point x="97" y="543"/>
      <point x="46" y="462"/>
    </contour>
    <contour>
      <point x="540" y="650" type="move" name="altcaron"/>
    </contour>
    <contour>
      <point x="457" y="850" type="move" name="top"/>
    </contour>
    <contour>
      <point x="284" y="-150" type="move" name="bottom"/>
    </contour>
  </outline>
</glyph>
<glyph name="e" format="1">
  <advance width="539"/>
  <unicode hex="0065"/>
  <note>
    GF Latin Plus glyph
  </note>
  <outline>
    <contour>
      <point x="168" y="298" type="line"/>
      <point x="168" y="420"/>
      <point x="195" y="453"/>
      <point x="279" y="453" type="curve" smooth="yes"/>
      <point x="354" y="453"/>
      <point x="382" y="431"/>
      <point x="382" y="361" type="curve" smooth="yes"/>
      <point x="382" y="314"/>
      <point x="361" y="298"/>
      <point x="314" y="298" type="curve" smooth="yes"/>
    </contour>
    <contour>
      <point x="46" y="268" type="curve" smooth="yes"/>
      <point x="46" y="56"/>
      <point x="108" y="-5"/>
      <point x="282" y="-5" type="curve" smooth="yes"/>
      <point x="364" y="-5"/>
      <point x="421" y="5"/>
      <point x="476" y="15" type="curve"/>
      <point x="476" y="88" type="line"/>
      <point x="314" y="88" type="line" smooth="yes"/>
      <point x="197" y="88"/>
      <point x="172" y="124"/>
      <point x="169" y="223" type="curve"/>
      <point x="326" y="223" type="line" smooth="yes"/>
      <point x="428" y="223"/>
      <point x="492" y="258"/>
      <point x="492" y="361" type="curve" smooth="yes"/>
      <point x="492" y="504"/>
      <point x="432" y="543"/>
      <point x="279" y="543" type="curve" smooth="yes"/>
      <point x="105" y="543"/>
      <point x="46" y="484"/>
    </contour>
    <contour>
      <point x="270" y="650" type="move" name="top"/>
    </contour>
    <contour>
      <point x="466" y="24" type="move" name="ogonek"/>
    </contour>
    <contour>
      <point x="270" y="-150" type="move" name="bottom"/>
    </contour>
  </outline>
</glyph>
<glyph name="g" format="1">
  <advance width="580"/>
  <unicode hex="0067"/>
  <note>
    GF Latin Plus glyph
  </note>
  <outline>
    <contour>
      <point x="166" y="355" type="curve" smooth="yes"/>
      <point x="166" y="419"/>
      <point x="198" y="443"/>
      <point x="258" y="443" type="curve" smooth="yes"/>
      <point x="314" y="443" type="line" smooth="yes"/>
      <point x="369" y="443"/>
      <point x="402" y="419"/>
      <point x="402" y="350" type="curve" smooth="yes"/>
      <point x="402" y="302"/>
      <point x="383" y="264"/>
      <point x="309" y="264" type="curve" smooth="yes"/>
      <point x="251" y="264" type="line" smooth="yes"/>
      <point x="196" y="264"/>
      <point x="166" y="291"/>
    </contour>
    <contour>
      <point x="54" y="362" type="curve" smooth="yes"/>
      <point x="54" y="302"/>
      <point x="75" y="241"/>
      <point x="143" y="208" type="curve"/>
      <point x="87" y="196"/>
      <point x="54" y="160"/>
      <point x="54" y="107" type="curve" smooth="yes"/>
      <point x="54" y="44"/>
      <point x="108" y="-2"/>
      <point x="215" y="-2" type="curve" smooth="yes"/>
      <point x="349" y="-2" type="line" smooth="yes"/>
      <point x="416" y="-2"/>
      <point x="441" y="-29"/>
      <point x="441" y="-71" type="curve" smooth="yes"/>
      <point x="441" y="-88" type="line" smooth="yes"/>
      <point x="441" y="-136"/>
      <point x="403" y="-159"/>
      <point x="342" y="-159" type="curve" smooth="yes"/>
      <point x="233" y="-159" type="line" smooth="yes"/>
      <point x="175" y="-159"/>
      <point x="141" y="-137"/>
      <point x="141" y="-90" type="curve" smooth="yes"/>
      <point x="141" y="-74" type="line" smooth="yes"/>
      <point x="141" y="-25"/>
      <point x="181" y="-2"/>
      <point x="230" y="-2" type="curve"/>
      <point x="194" y="39" type="line"/>
      <point x="110" y="39"/>
      <point x="24" y="-9"/>
      <point x="24" y="-98" type="curve" smooth="yes"/>
      <point x="24" y="-117" type="line" smooth="yes"/>
      <point x="24" y="-202"/>
      <point x="98" y="-247"/>
      <point x="200" y="-247" type="curve" smooth="yes"/>
      <point x="357" y="-247" type="line" smooth="yes"/>
      <point x="492" y="-247"/>
      <point x="558" y="-185"/>
      <point x="558" y="-82" type="curve" smooth="yes"/>
      <point x="558" y="-65" type="line" smooth="yes"/>
      <point x="558" y="46"/>
      <point x="491" y="91"/>
      <point x="368" y="91" type="curve" smooth="yes"/>
      <point x="209" y="91" type="line" smooth="yes"/>
      <point x="184" y="91"/>
      <point x="159" y="100"/>
      <point x="159" y="127" type="curve" smooth="yes"/>
      <point x="159" y="159"/>
      <point x="188" y="171"/>
      <point x="231" y="171" type="curve" smooth="yes"/>
      <point x="322" y="171" type="line" smooth="yes"/>
      <point x="463" y="171"/>
      <point x="514" y="245"/>
      <point x="514" y="334" type="curve" smooth="yes"/>
      <point x="514" y="408"/>
      <point x="486" y="436"/>
      <point x="464" y="455" type="curve"/>
      <point x="560" y="468" type="line"/>
      <point x="560" y="537" type="line"/>
      <point x="271" y="537" type="line" smooth="yes"/>
      <point x="129" y="537"/>
      <point x="54" y="483"/>
    </contour>
    <contour>
      <point x="290" y="650" type="move" name="top"/>
    </contour>
  </outline>
</glyph>
<glyph name="n" format="1">
  <advance width="593"/>
  <unicode hex="006E"/>
  <note>
    GF Latin Plus glyph
  </note>
  <outline>
    <contour>
      <point x="63" y="0" type="line"/>
      <point x="187" y="0" type="line"/>
      <point x="187" y="389" type="line"/>
      <point x="228" y="416"/>
      <point x="267" y="433"/>
      <point x="319" y="433" type="curve" smooth="yes"/>
      <point x="374" y="433"/>
      <point x="408" y="399"/>
      <point x="408" y="342" type="curve" smooth="yes"/>
      <point x="408" y="0" type="line"/>
      <point x="532" y="0" type="line"/>
      <point x="532" y="357" type="line" smooth="yes"/>
      <point x="532" y="459"/>
      <point x="492" y="545"/>
      <point x="366" y="545" type="curve" smooth="yes"/>
      <point x="299" y="545"/>
      <point x="231" y="513"/>
      <point x="187" y="480" type="curve"/>
      <point x="164" y="536" type="line"/>
      <point x="63" y="536" type="line"/>
    </contour>
    <contour>
      <point x="296" y="650" type="move" name="top"/>
    </contour>
    <contour>
      <point x="296" y="-150" type="move" name="bottom"/>
    </contour>
  </outline>
</glyph>
<glyph name="section" format="1">
  <advance width="543"/>
  <unicode hex="00A7"/>
  <note>
    GF Latin Plus glyph
  </note>
  <outline>
    <contour>
      <point x="163" y="365" type="curve" smooth="yes"/>
      <point x="163" y="406" type="line" smooth="yes"/>
      <point x="163" y="445"/>
      <point x="180" y="457"/>
      <point x="232" y="457" type="curve" smooth="yes"/>
      <point x="311" y="457" type="line" smooth="yes"/>
      <point x="366" y="457"/>
      <point x="382" y="446"/>
      <point x="382" y="408" type="curve" smooth="yes"/>
      <point x="382" y="366" type="line" smooth="yes"/>
      <point x="382" y="321"/>
      <point x="370" y="316"/>
      <point x="311" y="316" type="curve" smooth="yes"/>
      <point x="232" y="316" type="line" smooth="yes"/>
      <point x="180" y="316"/>
      <point x="163" y="334"/>
    </contour>
    <contour>
      <point x="45" y="335" type="line" smooth="yes"/>
      <point x="45" y="249"/>
      <point x="101" y="223"/>
      <point x="202" y="223" type="curve" smooth="yes"/>
      <point x="311" y="223" type="line" smooth="yes"/>
      <point x="363" y="223"/>
      <point x="372" y="213"/>
      <point x="372" y="181" type="curve" smooth="yes"/>
      <point x="372" y="143" type="line" smooth="yes"/>
      <point x="372" y="113"/>
      <point x="358" y="94"/>
      <point x="291" y="94" type="curve" smooth="yes"/>
      <point x="86" y="94" type="line"/>
      <point x="86" y="6" type="line"/>
      <point x="142" y="-3"/>
      <point x="250" y="-6"/>
      <point x="315" y="-6" type="curve" smooth="yes"/>
      <point x="424" y="-6"/>
      <point x="493" y="28"/>
      <point x="493" y="139" type="curve" smooth="yes"/>
      <point x="493" y="195" type="line" smooth="yes"/>
      <point x="493" y="243"/>
      <point x="479" y="283"/>
      <point x="432" y="295" type="curve"/>
      <point x="481" y="310"/>
      <point x="500" y="343"/>
      <point x="500" y="392" type="curve" smooth="yes"/>
      <point x="500" y="436" type="line" smooth="yes"/>
      <point x="500" y="520"/>
      <point x="456" y="551"/>
      <point x="339" y="551" type="curve" smooth="yes"/>
      <point x="233" y="551" type="line" smooth="yes"/>
      <point x="189" y="551"/>
      <point x="173" y="565"/>
      <point x="173" y="596" type="curve" smooth="yes"/>
      <point x="173" y="628" type="line" smooth="yes"/>
      <point x="173" y="673"/>
      <point x="197" y="684"/>
      <point x="246" y="684" type="curve" smooth="yes"/>
      <point x="458" y="684" type="line"/>
      <point x="458" y="770" type="line"/>
      <point x="409" y="780"/>
      <point x="287" y="784"/>
      <point x="228" y="784" type="curve" smooth="yes"/>
      <point x="109" y="784"/>
      <point x="55" y="734"/>
      <point x="55" y="647" type="curve" smooth="yes"/>
      <point x="55" y="590" type="line" smooth="yes"/>
      <point x="55" y="541"/>
      <point x="68" y="497"/>
      <point x="115" y="478" type="curve"/>
      <point x="67" y="463"/>
      <point x="45" y="440"/>
      <point x="45" y="380" type="curve" smooth="yes"/>
    </contour>
  </outline>
</glyph>
<glyph name="dieresis" format="1">
  <advance width="404"/>
  <unicode hex="00A8"/>
  <note>
    GF Latin Plus glyph
  </note>
  <outline>
    <contour>
      <point x="57" y="662" type="line" smooth="yes"/>
      <point x="57" y="650"/>
      <point x="65" y="643"/>
      <point x="76" y="643" type="curve" smooth="yes"/>
      <point x="133" y="643" type="line" smooth="yes"/>
      <point x="144" y="643"/>
      <point x="152" y="649"/>
      <point x="152" y="662" type="curve" smooth="yes"/>
      <point x="152" y="752" type="line" smooth="yes"/>
      <point x="152" y="763"/>
      <point x="145" y="772"/>
      <point x="133" y="772" type="curve" smooth="yes"/>
      <point x="76" y="772" type="line" smooth="yes"/>
      <point x="63" y="772"/>
      <point x="57" y="764"/>
      <point x="57" y="752" type="curve" smooth="yes"/>
    </contour>
    <contour>
      <point x="253" y="662" type="line" smooth="yes"/>
      <point x="253" y="650"/>
      <point x="261" y="643"/>
      <point x="272" y="643" type="curve" smooth="yes"/>
      <point x="329" y="643" type="line" smooth="yes"/>
      <point x="340" y="643"/>
      <point x="348" y="649"/>
      <point x="348" y="662" type="curve" smooth="yes"/>
      <point x="348" y="752" type="line" smooth="yes"/>
      <point x="348" y="763"/>
      <point x="341" y="772"/>
      <point x="329" y="772" type="curve" smooth="yes"/>
      <point x="272" y="772" type="line" smooth="yes"/>
      <point x="259" y="772"/>
      <point x="253" y="764"/>
      <point x="253" y="752" type="curve" smooth="yes"/>
    </contour>
  </outline>
</glyph>
<glyph name="copyright" format="1">
  <advance width="822"/>
  <unicode hex="00A9"/>
  <note>
    GF Latin Plus glyph
  </note>
  <outline>
    <contour>
      <point x="227" y="365" type="curve" smooth="yes"/>
      <point x="227" y="188"/>
      <point x="300" y="147"/>
      <point x="382" y="147" type="curve" smooth="yes"/>
      <point x="447" y="147"/>
      <point x="505" y="149"/>
      <point x="561" y="172" type="curve"/>
      <point x="561" y="230" type="line"/>
      <point x="520" y="221"/>
      <point x="466" y="214"/>
      <point x="405" y="214" type="curve" smooth="yes"/>
      <point x="330" y="214"/>
      <point x="300" y="260"/>
      <point x="300" y="362" type="curve" smooth="yes"/>
      <point x="300" y="479"/>
      <point x="334" y="516"/>
      <point x="406" y="516" type="curve" smooth="yes"/>
      <point x="437" y="516"/>
      <point x="497" y="513"/>
      <point x="555" y="504" type="curve"/>
      <point x="555" y="562" type="line"/>
      <point x="501" y="578"/>
      <point x="421" y="583"/>
      <point x="383" y="583" type="curve" smooth="yes"/>
      <point x="290" y="583"/>
      <point x="227" y="526"/>
    </contour>
    <contour>
      <point x="121" y="368" type="curve" smooth="yes"/>
      <point x="123" y="606"/>
      <point x="213" y="665"/>
      <point x="311" y="665" type="curve" smooth="yes"/>
      <point x="534" y="665" type="line" smooth="yes"/>
      <point x="673" y="665"/>
      <point x="701" y="517"/>
      <point x="701" y="368" type="curve" smooth="yes"/>
      <point x="701" y="153"/>
      <point x="628" y="67"/>
      <point x="528" y="67" type="curve" smooth="yes"/>
      <point x="311" y="67" type="line" smooth="yes"/>
      <point x="180" y="67"/>
      <point x="121" y="210"/>
    </contour>
    <contour>
      <point x="49" y="368" type="curve" smooth="yes"/>
      <point x="49" y="183"/>
      <point x="122" y="0"/>
      <point x="311" y="0" type="curve" smooth="yes"/>
      <point x="534" y="0" type="line" smooth="yes"/>
      <point x="685" y="0"/>
      <point x="774" y="136"/>
      <point x="774" y="368" type="curve" smooth="yes"/>
      <point x="774" y="545"/>
      <point x="734" y="732"/>
      <point x="534" y="732" type="curve" smooth="yes"/>
      <point x="311" y="732" type="line" smooth="yes"/>
      <point x="97" y="732"/>
      <point x="49" y="550"/>
    </contour>
  </outline>
</glyph>
<glyph name="degree" format="1">
  <advance width="322"/>
  <unicode hex="00B0"/>
  <note>
    GF Latin Plus glyph
  </note>
  <outline>
    <contour>
      <point x="79" y="626" type="curve" smooth="yes"/>
      <point x="79" y="675"/>
      <point x="113" y="710"/>
      <point x="162" y="710" type="curve" smooth="yes"/>
      <point x="210" y="710"/>
      <point x="243" y="675"/>
      <point x="243" y="626" type="curve" smooth="yes"/>
      <point x="243" y="577"/>
      <point x="210" y="543"/>
      <point x="162" y="543" type="curve" smooth="yes"/>
      <point x="114" y="543"/>
      <point x="79" y="577"/>
    </contour>
    <contour>
      <point x="22" y="626" type="curve" smooth="yes"/>
      <point x="22" y="543"/>
      <point x="82" y="486"/>
      <point x="162" y="486" type="curve" smooth="yes"/>
      <point x="244" y="486"/>
      <point x="300" y="543"/>
      <point x="300" y="626" type="curve" smooth="yes"/>
      <point x="300" y="709"/>
      <point x="244" y="767"/>
      <point x="162" y="767" type="curve" smooth="yes"/>
      <point x="82" y="767"/>
      <point x="22" y="709"/>
    </contour>
  </outline>
</glyph>
<glyph name="threesuperior" format="1">
  <advance width="453"/>
  <unicode hex="00B3"/>
  <note>
    GF Latin Plus glyph
  </note>
  <outline>
    <contour>
      <point x="52" y="725" type="line"/>
      <point x="200" y="725" type="line" smooth="yes"/>
      <point x="261" y="725"/>
      <point x="287" y="706"/>
      <point x="287" y="669" type="curve" smooth="yes"/>
      <point x="287" y="646" type="line" smooth="yes"/>
      <point x="287" y="613"/>
      <point x="260" y="602"/>
      <point x="215" y="599" type="curve" smooth="yes"/>
      <point x="89" y="592" type="line"/>
      <point x="89" y="511" type="line"/>
      <point x="220" y="506" type="line" smooth="yes"/>
      <point x="260" y="504"/>
      <point x="293" y="490"/>
      <point x="293" y="451" type="curve" smooth="yes"/>
      <point x="293" y="429" type="line" smooth="yes"/>
      <point x="293" y="388"/>
      <point x="262" y="375"/>
      <point x="203" y="375" type="curve" smooth="yes"/>
      <point x="39" y="375" type="line"/>
      <point x="39" y="291" type="line"/>
      <point x="96" y="281"/>
      <point x="162" y="276"/>
      <point x="239" y="276" type="curve" smooth="yes"/>
      <point x="340" y="276"/>
      <point x="401" y="325"/>
      <point x="401" y="414" type="curve" smooth="yes"/>
      <point x="401" y="442" type="line" smooth="yes"/>
      <point x="401" y="503"/>
      <point x="366" y="540"/>
      <point x="324" y="552" type="curve"/>
      <point x="363" y="563"/>
      <point x="394" y="594"/>
      <point x="394" y="651" type="curve" smooth="yes"/>
      <point x="394" y="691" type="line" smooth="yes"/>
      <point x="394" y="777"/>
      <point x="337" y="823"/>
      <point x="241" y="824" type="curve" smooth="yes"/>
      <point x="167" y="825"/>
      <point x="107" y="819"/>
      <point x="52" y="808" type="curve"/>
    </contour>
  </outline>
</glyph>
<glyph name="paragraph" format="1">
  <advance width="573"/>
  <unicode hex="00B6"/>
  <note>
    GF Latin Plus glyph
  </note>
  <outline>
    <contour>
      <point x="114" y="468" type="curve" smooth="yes"/>
      <point x="114" y="578" type="line" smooth="yes"/>
      <point x="114" y="630"/>
      <point x="136" y="656"/>
      <point x="197" y="656" type="curve" smooth="yes"/>
      <point x="258" y="656" type="line"/>
      <point x="258" y="390" type="line"/>
      <point x="197" y="390" type="line" smooth="yes"/>
      <point x="168" y="390"/>
      <point x="114" y="396"/>
    </contour>
    <contour>
      <point x="31" y="455" type="line" smooth="yes"/>
      <point x="31" y="375"/>
      <point x="79" y="307"/>
      <point x="183" y="307" type="curve"/>
      <point x="222" y="307"/>
      <point x="248" y="314"/>
      <point x="258" y="321" type="curve"/>
      <point x="258" y="-270" type="line"/>
      <point x="340" y="-270" type="line"/>
      <point x="340" y="656" type="line"/>
      <point x="419" y="656" type="line"/>
      <point x="419" y="0" type="line"/>
      <point x="502" y="0" type="line"/>
      <point x="502" y="654" type="line"/>
      <point x="568" y="654" type="line"/>
      <point x="568" y="738" type="line"/>
      <point x="191" y="738" type="line" smooth="yes"/>
      <point x="102" y="738"/>
      <point x="31" y="693"/>
      <point x="31" y="598" type="curve" smooth="yes"/>
    </contour>
  </outline>
</glyph>
<glyph name="Thorn" format="1">
  <advance width="577"/>
  <unicode hex="00DE"/>
  <note>
    GF Latin Plus glyph
  </note>
  <outline>
    <contour>
      <point x="69" y="0" type="line"/>
      <point x="192" y="0" type="line"/>
      <point x="192" y="155" type="line"/>
      <point x="221" y="151"/>
      <point x="302" y="140"/>
      <point x="338" y="140" type="curve" smooth="yes"/>
      <point x="426" y="140"/>
      <point x="541" y="173"/>
      <point x="541" y="380" type="curve" smooth="yes"/>
      <point x="541" y="585"/>
      <point x="428" y="613"/>
      <point x="336" y="613" type="curve" smooth="yes"/>
      <point x="192" y="613" type="line"/>
      <point x="192" y="738" type="line"/>
      <point x="69" y="738" type="line"/>
    </contour>
    <contour>
      <point x="192" y="252" type="line"/>
      <point x="192" y="502" type="line"/>
      <point x="324" y="502" type="line" smooth="yes"/>
      <point x="377" y="502"/>
      <point x="417" y="472"/>
      <point x="417" y="379" type="curve" smooth="yes"/>
      <point x="417" y="284"/>
      <point x="378" y="252"/>
      <point x="320" y="252" type="curve" smooth="yes"/>
    </contour>
  </outline>
</glyph>
<glyph name="eth" format="1">
  <advance width="576"/>
  <unicode hex="00F0"/>
  <note>
    GF Latin Plus glyph
  </note>
  <outline>
    <contour>
      <point x="46" y="263" type="curve" smooth="yes"/>
      <point x="46" y="55"/>
      <point x="118" y="-5"/>
      <point x="287" y="-5" type="curve" smooth="yes"/>
      <point x="460" y="-5"/>
      <point x="529" y="52"/>
      <point x="529" y="269" type="curve" smooth="yes"/>
      <point x="529" y="352"/>
      <point x="480" y="392"/>
      <point x="443" y="442" type="curve"/>
      <point x="417" y="505"/>
      <point x="358" y="530"/>
      <point x="271" y="530" type="curve" smooth="yes"/>
      <point x="130" y="530"/>
      <point x="46" y="480"/>
    </contour>
    <contour>
      <point x="170" y="264" type="curve" smooth="yes"/>
      <point x="170" y="415"/>
      <point x="207" y="432"/>
      <point x="287" y="432" type="curve" smooth="yes"/>
      <point x="368" y="432"/>
      <point x="405" y="415"/>
      <point x="405" y="264" type="curve" smooth="yes"/>
      <point x="405" y="112"/>
      <point x="368" y="94"/>
      <point x="287" y="94" type="curve" smooth="yes"/>
      <point x="207" y="94"/>
      <point x="170" y="112"/>
    </contour>
    <contour>
      <point x="135" y="690" type="line"/>
      <point x="327" y="680"/>
      <point x="418" y="595"/>
      <point x="418" y="312" type="curve"/>
      <point x="529" y="269" type="line"/>
      <point x="529" y="637"/>
      <point x="410" y="756"/>
      <point x="135" y="765" type="curve"/>
    </contour>
    <contour>
      <point x="166" y="564" type="line"/>
      <point x="524" y="702" type="line"/>
      <point x="508" y="745" type="line"/>
      <point x="150" y="606" type="line"/>
    </contour>
  </outline>
</glyph>
<glyph name="Ohorn" format="1">
  <advance width="695"/>
  <unicode hex="01A0"/>
  <note>
    GF Latin Plus glyph
  </note>
  <outline>
    <contour>
      <point x="376" y="671" type="line"/>
      <point x="522" y="671" type="line" smooth="yes"/>
      <point x="602" y="671"/>
      <point x="661" y="726"/>
      <point x="661" y="850" type="curve"/>
      <point x="574" y="850" type="line"/>
      <point x="574" y="766"/>
      <point x="546" y="738"/>
      <point x="500" y="738" type="curve" smooth="yes"/>
      <point x="376" y="738" type="line"/>
    </contour>
    <component base="O"/>
    <contour>
      <point x="347" y="810" type="move" name="top"/>
    </contour>
    <contour>
      <point x="347" y="-150" type="move" name="bottom"/>
    </contour>
  </outline>
</glyph>
<glyph name="ogonek" format="1">
  <advance width="222"/>
  <unicode hex="02DB"/>
  <note>
    GF Latin Plus glyph
  </note>
  <outline>
    <contour>
      <point x="112" y="0" type="line"/>
      <point x="67" y="-22"/>
      <point x="43" y="-57"/>
      <point x="43" y="-100" type="curve" smooth="yes"/>
      <point x="43" y="-147"/>
      <point x="76" y="-190"/>
      <point x="149" y="-190" type="curve" smooth="yes"/>
      <point x="161" y="-190"/>
      <point x="172" y="-189"/>
      <point x="179" y="-187" type="curve"/>
      <point x="179" y="-128" type="line"/>
      <point x="171" y="-128" type="line" smooth="yes"/>
      <point x="130" y="-128"/>
      <point x="104" y="-107"/>
      <point x="104" y="-72" type="curve" smooth="yes"/>
      <point x="104" y="-45"/>
      <point x="121" y="-22"/>
      <point x="158" y="0" type="curve"/>
    </contour>
  </outline>
</glyph>
<glyph name="quoteright" format="1">
  <advance width="211"/>
  <unicode hex="2019"/>
  <note>
    GF Latin Plus glyph
  </note>
  <outline>
    <contour>
      <point x="45" y="636" type="line" smooth="yes"/>
      <point x="45" y="622"/>
      <point x="54" y="615"/>
      <point x="66" y="615" type="curve" smooth="yes"/>
      <point x="75" y="615" type="line"/>
      <point x="75" y="579" type="line" smooth="yes"/>
      <point x="75" y="567"/>
      <point x="72" y="553"/>
      <point x="49" y="553" type="curve"/>
      <point x="49" y="507" type="line"/>
      <point x="57" y="505"/>
      <point x="63" y="505"/>
      <point x="78" y="505" type="curve" smooth="yes"/>
      <point x="111" y="505"/>
      <point x="160" y="515"/>
      <point x="160" y="580" type="curve" smooth="yes"/>
      <point x="160" y="729" type="line" smooth="yes"/>
      <point x="160" y="742"/>
      <point x="155" y="752"/>
      <point x="142" y="752" type="curve" smooth="yes"/>
      <point x="66" y="752" type="line" smooth="yes"/>
      <point x="52" y="752"/>
      <point x="45" y="744"/>
      <point x="45" y="729" type="curve" smooth="yes"/>
    </contour>
  </outline>
</glyph>
<glyph name="daggerdbl" format="1">
  <advance width="467"/>
  <unicode hex="2021"/>
  <note>
    GF Latin Plus glyph
  </note>
  <outline>
    <contour>
      <point x="18" y="153" type="line"/>
      <point x="161" y="140" type="line"/>
      <point x="170" y="-72" type="line"/>
      <point x="278" y="-72" type="line"/>
      <point x="287" y="141" type="line"/>
      <point x="432" y="153" type="line"/>
      <point x="432" y="246" type="line"/>
      <point x="289" y="258" type="line"/>
      <point x="289" y="449" type="line"/>
      <point x="432" y="460" type="line"/>
      <point x="432" y="554" type="line"/>
      <point x="289" y="564" type="line"/>
      <point x="279" y="770" type="line"/>
      <point x="171" y="770" type="line"/>
      <point x="162" y="564" type="line"/>
      <point x="18" y="554" type="line"/>
      <point x="18" y="460" type="line"/>
      <point x="162" y="449" type="line"/>
      <point x="162" y="259" type="line"/>
      <point x="18" y="246" type="line"/>
    </contour>
  </outline>
</glyph>
<glyph name="minute" format="1">
  <advance width="180"/>
  <unicode hex="2032"/>
  <outline>
    <contour>
      <point x="31" y="452" type="line"/>
      <point x="117" y="452" type="line"/>
      <point x="152" y="763" type="line"/>
      <point x="39" y="763" type="line"/>
    </contour>
  </outline>
</glyph>
<glyph name="zerosuperior" format="1">
  <advance width="453"/>
  <unicode hex="2070"/>
  <outline>
    <contour>
      <point x="145" y="431" type="curve" smooth="yes"/>
      <point x="145" y="670" type="line" smooth="yes"/>
      <point x="145" y="711"/>
      <point x="170" y="729"/>
      <point x="203" y="729" type="curve" smooth="yes"/>
      <point x="252" y="729" type="line" smooth="yes"/>
      <point x="286" y="729"/>
      <point x="308" y="712"/>
      <point x="308" y="670" type="curve" smooth="yes"/>
      <point x="308" y="431" type="line" smooth="yes"/>
      <point x="308" y="391"/>
      <point x="289" y="372"/>
      <point x="252" y="372" type="curve" smooth="yes"/>
      <point x="203" y="372" type="line" smooth="yes"/>
      <point x="170" y="372"/>
      <point x="145" y="389"/>
    </contour>
    <contour>
      <point x="36" y="416" type="line" smooth="yes"/>
      <point x="36" y="325"/>
      <point x="89" y="277"/>
      <point x="181" y="277" type="curve" smooth="yes"/>
      <point x="277" y="277" type="line" smooth="yes"/>
      <point x="365" y="277"/>
      <point x="417" y="326"/>
      <point x="417" y="416" type="curve" smooth="yes"/>
      <point x="417" y="680" type="line" smooth="yes"/>
      <point x="417" y="770"/>
      <point x="371" y="824"/>
      <point x="278" y="824" type="curve" smooth="yes"/>
      <point x="182" y="824" type="line" smooth="yes"/>
      <point x="91" y="824"/>
      <point x="36" y="774"/>
      <point x="36" y="680" type="curve" smooth="yes"/>
    </contour>
  </outline>
</glyph>
<glyph name="foursuperior" format="1">
  <advance width="453"/>
  <unicode hex="2074"/>
  <note>
    GF Latin Plus glyph
  </note>
  <outline>
    <contour>
      <point x="25" y="464" type="line"/>
      <point x="39" y="396" type="line"/>
      <point x="277" y="396" type="line"/>
      <point x="277" y="280" type="line"/>
      <point x="380" y="280" type="line"/>
      <point x="380" y="396" type="line"/>
      <point x="437" y="413" type="line"/>
      <point x="437" y="485" type="line"/>
      <point x="380" y="485" type="line"/>
      <point x="380" y="654" type="line"/>
      <point x="303" y="654" type="line"/>
      <point x="277" y="574" type="line"/>
      <point x="277" y="485" type="line"/>
      <point x="145" y="485" type="line"/>
      <point x="303" y="820" type="line"/>
      <point x="194" y="820" type="line"/>
    </contour>
  </outline>
</glyph>
<glyph name="sevensuperior" format="1">
  <advance width="453"/>
  <unicode hex="2077"/>
  <outline>
    <contour>
      <point x="38" y="715" type="line"/>
      <point x="279" y="715" type="line"/>
      <point x="109" y="280" type="line"/>
      <point x="231" y="280" type="line"/>
      <point x="414" y="760" type="line"/>
      <point x="391" y="820" type="line"/>
      <point x="38" y="820" type="line"/>
    </contour>
  </outline>
</glyph>
<glyph name="eightsuperior" format="1">
  <advance width="453"/>
  <unicode hex="2078"/>
  <outline>
    <contour>
      <point x="151" y="639" type="curve" smooth="yes"/>
      <point x="151" y="686" type="line" smooth="yes"/>
      <point x="151" y="718"/>
      <point x="165" y="735"/>
      <point x="199" y="735" type="curve" smooth="yes"/>
      <point x="260" y="735" type="line" smooth="yes"/>
      <point x="289" y="735"/>
      <point x="304" y="720"/>
      <point x="304" y="686" type="curve" smooth="yes"/>
      <point x="304" y="639" type="line" smooth="yes"/>
      <point x="304" y="619"/>
      <point x="290" y="597"/>
      <point x="257" y="597" type="curve" smooth="yes"/>
      <point x="199" y="597" type="line" smooth="yes"/>
      <point x="166" y="597"/>
      <point x="151" y="616"/>
    </contour>
    <contour>
      <point x="142" y="413" type="curve" smooth="yes"/>
      <point x="142" y="467" type="line" smooth="yes"/>
      <point x="142" y="501"/>
      <point x="174" y="515"/>
      <point x="197" y="515" type="curve" smooth="yes"/>
      <point x="259" y="515" type="line" smooth="yes"/>
      <point x="297" y="515"/>
      <point x="312" y="500"/>
      <point x="312" y="467" type="curve" smooth="yes"/>
      <point x="312" y="413" type="line" smooth="yes"/>
      <point x="312" y="383"/>
      <point x="295" y="366"/>
      <point x="261" y="366" type="curve" smooth="yes"/>
      <point x="197" y="366" type="line" smooth="yes"/>
      <point x="165" y="366"/>
      <point x="142" y="381"/>
    </contour>
    <contour>
      <point x="39" y="394" type="line" smooth="yes"/>
      <point x="39" y="311"/>
      <point x="95" y="277"/>
      <point x="182" y="277" type="curve" smooth="yes"/>
      <point x="282" y="277" type="line" smooth="yes"/>
      <point x="367" y="277"/>
      <point x="415" y="312"/>
      <point x="415" y="394" type="curve" smooth="yes"/>
      <point x="415" y="470" type="line" smooth="yes"/>
      <point x="415" y="502"/>
      <point x="397" y="548"/>
      <point x="357" y="560" type="curve"/>
      <point x="389" y="572"/>
      <point x="406" y="610"/>
      <point x="406" y="650" type="curve" smooth="yes"/>
      <point x="406" y="712" type="line" smooth="yes"/>
      <point x="406" y="793"/>
      <point x="350" y="824"/>
      <point x="281" y="824" type="curve" smooth="yes"/>
      <point x="176" y="824" type="line" smooth="yes"/>
      <point x="107" y="824"/>
      <point x="47" y="793"/>
      <point x="47" y="712" type="curve" smooth="yes"/>
      <point x="47" y="650" type="line" smooth="yes"/>
      <point x="47" y="613"/>
      <point x="63" y="578"/>
      <point x="98" y="558" type="curve"/>
      <point x="66" y="548"/>
      <point x="39" y="511"/>
      <point x="39" y="468" type="curve" smooth="yes"/>
    </contour>
  </outline>
</glyph>
<glyph name="lira" format="1">
  <advance width="609"/>
  <unicode hex="20A4"/>
  <note>
    GF Latin Plus glyph
  </note>
  <outline>
    <contour>
      <point x="60" y="0" type="line"/>
      <point x="554" y="0" type="line"/>
      <point x="554" y="111" type="line"/>
      <point x="282" y="111" type="line"/>
      <point x="282" y="241" type="line"/>
      <point x="475" y="244" type="line"/>
      <point x="475" y="300" type="line"/>
      <point x="282" y="305" type="line"/>
      <point x="282" y="376" type="line"/>
      <point x="476" y="379" type="line"/>
      <point x="476" y="435" type="line"/>
      <point x="282" y="441" type="line"/>
      <point x="282" y="517" type="line" smooth="yes"/>
      <point x="282" y="610"/>
      <point x="318" y="631"/>
      <point x="395" y="631" type="curve" smooth="yes"/>
      <point x="547" y="631" type="line"/>
      <point x="547" y="730" type="line"/>
      <point x="511" y="735"/>
      <point x="452" y="742"/>
      <point x="389" y="742" type="curve" smooth="yes"/>
      <point x="235" y="742"/>
      <point x="158" y="686"/>
      <point x="158" y="516" type="curve" smooth="yes"/>
      <point x="158" y="441" type="line"/>
      <point x="60" y="435" type="line"/>
      <point x="60" y="379" type="line"/>
      <point x="158" y="376" type="line"/>
      <point x="158" y="311" type="line"/>
      <point x="61" y="305" type="line"/>
      <point x="61" y="249" type="line"/>
      <point x="158" y="245" type="line"/>
      <point x="158" y="111" type="line"/>
      <point x="60" y="94" type="line"/>
    </contour>
  </outline>
</glyph>
<glyph name="won" format="1">
  <advance width="609"/>
  <unicode hex="20A9"/>
  <note>
    GF Latin Plus glyph
  </note>
  <outline>
    <contour>
      <point x="43" y="738" type="line"/>
      <point x="104" y="0" type="line"/>
      <point x="213" y="0" type="line"/>
      <point x="298" y="404" type="line"/>
      <point x="393" y="0" type="line"/>
      <point x="501" y="0" type="line"/>
      <point x="561" y="738" type="line"/>
      <point x="451" y="738" type="line"/>
      <point x="409" y="251" type="line"/>
      <point x="330" y="603" type="line"/>
      <point x="275" y="603" type="line"/>
      <point x="193" y="251" type="line"/>
      <point x="153" y="738" type="line"/>
    </contour>
    <contour>
      <point x="5" y="467" type="line"/>
      <point x="114" y="467" type="line"/>
      <point x="114" y="532" type="line"/>
      <point x="5" y="532" type="line"/>
    </contour>
    <contour>
      <point x="510" y="467" type="line"/>
      <point x="600" y="467" type="line"/>
      <point x="600" y="532" type="line"/>
      <point x="504" y="532" type="line"/>
    </contour>
    <contour>
      <point x="5" y="211" type="line"/>
      <point x="163" y="211" type="line"/>
      <point x="144" y="276" type="line"/>
      <point x="5" y="276" type="line"/>
    </contour>
    <contour>
      <point x="459" y="211" type="line"/>
      <point x="600" y="211" type="line"/>
      <point x="600" y="276" type="line"/>
      <point x="459" y="276" type="line"/>
    </contour>
  </outline>
</glyph>
<glyph name="dong" format="1">
  <advance width="609"/>
  <unicode hex="20AB"/>
  <note>
    GF Latin Plus glyph
  </note>
  <outline>
    <contour>
      <point x="68" y="-41" type="line"/>
      <point x="554" y="-41" type="line"/>
      <point x="554" y="60" type="line"/>
      <point x="68" y="60" type="line"/>
    </contour>
    <contour>
      <point x="279" y="660" type="line"/>
      <point x="590" y="660" type="line"/>
      <point x="590" y="710" type="line"/>
      <point x="279" y="710" type="line"/>
    </contour>
    <contour>
      <point x="179" y="361" type="curve" smooth="yes"/>
      <point x="179" y="462"/>
      <point x="213" y="490"/>
      <point x="296" y="490" type="curve" smooth="yes"/>
      <point x="337" y="490"/>
      <point x="369" y="479"/>
      <point x="404" y="467" type="curve"/>
      <point x="404" y="273" type="line"/>
      <point x="375" y="256"/>
      <point x="337" y="238"/>
      <point x="288" y="238" type="curve" smooth="yes"/>
      <point x="211" y="238"/>
      <point x="179" y="269"/>
    </contour>
    <contour>
      <point x="55" y="355" type="curve" smooth="yes"/>
      <point x="55" y="201"/>
      <point x="119" y="138"/>
      <point x="247" y="138" type="curve" smooth="yes"/>
      <point x="303" y="138"/>
      <point x="371" y="166"/>
      <point x="404" y="196" type="curve"/>
      <point x="424" y="144" type="line"/>
      <point x="527" y="144" type="line"/>
      <point x="527" y="783" type="line"/>
      <point x="404" y="783" type="line"/>
      <point x="404" y="556" type="line"/>
      <point x="364" y="570"/>
      <point x="309" y="583"/>
      <point x="257" y="583" type="curve" smooth="yes"/>
      <point x="105" y="583"/>
      <point x="55" y="517"/>
    </contour>
  </outline>
</glyph>
<glyph name="guarani" format="1">
  <advance width="609"/>
  <unicode hex="20B2"/>
  <note>
    GF Latin Plus glyph
  </note>
  <outline>
    <contour>
      <point x="359" y="-92" type="line"/>
      <point x="359" y="793" type="line"/>
      <point x="300" y="793" type="line"/>
      <point x="300" y="-92" type="line"/>
    </contour>
    <contour>
      <point x="38" y="366" type="curve" smooth="yes"/>
      <point x="38" y="131"/>
      <point x="84" y="-6"/>
      <point x="270" y="-5" type="curve" smooth="yes"/>
      <point x="355" y="-5"/>
      <point x="435" y="27"/>
      <point x="477" y="51" type="curve"/>
      <point x="495" y="0" type="line"/>
      <point x="575" y="0" type="line"/>
      <point x="575" y="409" type="line"/>
      <point x="463" y="409" type="line"/>
      <point x="463" y="136" type="line"/>
      <point x="427" y="123"/>
      <point x="367" y="109"/>
      <point x="308" y="109" type="curve" smooth="yes"/>
      <point x="187" y="109"/>
      <point x="150" y="161"/>
      <point x="150" y="365" type="curve" smooth="yes"/>
      <point x="150" y="558"/>
      <point x="182" y="626"/>
      <point x="333" y="626" type="curve" smooth="yes"/>
      <point x="424" y="626"/>
      <point x="514" y="617"/>
      <point x="556" y="612" type="curve"/>
      <point x="556" y="707" type="line"/>
      <point x="483" y="724"/>
      <point x="404" y="737"/>
      <point x="311" y="737" type="curve" smooth="yes"/>
      <point x="90" y="737"/>
      <point x="38" y="604"/>
    </contour>
  </outline>
</glyph>
<glyph name="cedi" format="1">
  <advance width="609"/>
  <unicode hex="20B5"/>
  <note>
    GF Latin Plus glyph
  </note>
  <outline>
    <contour>
      <point x="395" y="-92" type="line"/>
      <point x="395" y="793" type="line"/>
      <point x="335" y="793" type="line"/>
      <point x="335" y="-92" type="line"/>
    </contour>
    <contour>
      <point x="57" y="364" type="curve" smooth="yes"/>
      <point x="57" y="57"/>
      <point x="156" y="-6"/>
      <point x="332" y="-6" type="curve" smooth="yes"/>
      <point x="438" y="-6"/>
      <point x="511" y="7"/>
      <point x="558" y="26" type="curve"/>
      <point x="558" y="115" type="line"/>
      <point x="506" y="104"/>
      <point x="452" y="99"/>
      <point x="360" y="99" type="curve" smooth="yes"/>
      <point x="211" y="99"/>
      <point x="169" y="147"/>
      <point x="169" y="362" type="curve" smooth="yes"/>
      <point x="169" y="597"/>
      <point x="234" y="630"/>
      <point x="373" y="630" type="curve" smooth="yes"/>
      <point x="431" y="630"/>
      <point x="505" y="622"/>
      <point x="558" y="614" type="curve"/>
      <point x="558" y="704" type="line"/>
      <point x="523" y="716"/>
      <point x="444" y="736"/>
      <point x="346" y="736" type="curve" smooth="yes"/>
      <point x="175" y="736"/>
      <point x="57" y="669"/>
    </contour>
  </outline>
</glyph>
<glyph name="literSign" format="1">
  <advance width="480"/>
  <unicode hex="2113"/>
  <outline>
    <contour>
      <point x="207" y="389" type="curve"/>
      <point x="207" y="584" type="line" smooth="yes"/>
      <point x="207" y="625"/>
      <point x="233" y="645"/>
      <point x="261" y="645" type="curve" smooth="yes"/>
      <point x="300" y="645"/>
      <point x="323" y="617"/>
      <point x="323" y="578" type="curve" smooth="yes"/>
      <point x="323" y="512"/>
      <point x="275" y="457"/>
    </contour>
    <contour>
      <point x="26" y="254" type="curve"/>
      <point x="43" y="194" type="line"/>
      <point x="54" y="200"/>
      <point x="73" y="212"/>
      <point x="84" y="221" type="curve"/>
      <point x="84" y="182" type="line" smooth="yes"/>
      <point x="84" y="44"/>
      <point x="139" y="0"/>
      <point x="238" y="0" type="curve" smooth="yes"/>
      <point x="380" y="0" type="line"/>
      <point x="380" y="73" type="line"/>
      <point x="314" y="83" type="line" smooth="yes"/>
      <point x="225" y="98"/>
      <point x="207" y="137"/>
      <point x="207" y="224" type="curve" smooth="yes"/>
      <point x="207" y="270" type="line"/>
      <point x="298" y="337"/>
      <point x="426" y="441"/>
      <point x="426" y="572" type="curve" smooth="yes"/>
      <point x="426" y="686"/>
      <point x="357" y="739"/>
      <point x="264" y="739" type="curve" smooth="yes"/>
      <point x="150" y="739"/>
      <point x="84" y="684"/>
      <point x="84" y="564" type="curve" smooth="yes"/>
      <point x="84" y="309" type="line"/>
      <point x="65" y="289"/>
      <point x="45" y="271"/>
    </contour>
  </outline>
</glyph>
<glyph name="partialdiff" format="1">
  <advance width="645"/>
  <unicode hex="2202"/>
  <outline>
    <contour>
      <point x="172" y="229" type="curve" smooth="yes"/>
      <point x="172" y="309"/>
      <point x="219" y="345"/>
      <point x="310" y="345" type="curve" smooth="yes"/>
      <point x="359" y="345"/>
      <point x="416" y="329"/>
      <point x="438" y="316" type="curve"/>
      <point x="438" y="256"/>
      <point x="421" y="105"/>
      <point x="301" y="105" type="curve" smooth="yes"/>
      <point x="234" y="105"/>
      <point x="172" y="144"/>
    </contour>
    <contour>
      <point x="51" y="227" type="curve" smooth="yes"/>
      <point x="51" y="69"/>
      <point x="167" y="-5"/>
      <point x="297" y="-5" type="curve" smooth="yes"/>
      <point x="502" y="-5"/>
      <point x="573" y="169"/>
      <point x="573" y="387" type="curve" smooth="yes"/>
      <point x="573" y="603"/>
      <point x="493" y="740"/>
      <point x="302" y="740" type="curve" smooth="yes"/>
      <point x="218" y="740"/>
      <point x="154" y="710"/>
      <point x="90" y="667" type="curve"/>
      <point x="106" y="575" type="line"/>
      <point x="143" y="598"/>
      <point x="218" y="629"/>
      <point x="296" y="629" type="curve" smooth="yes"/>
      <point x="411" y="629"/>
      <point x="448" y="546"/>
      <point x="448" y="405" type="curve"/>
      <point x="402" y="443"/>
      <point x="336" y="455"/>
      <point x="285" y="455" type="curve" smooth="yes"/>
      <point x="141" y="455"/>
      <point x="51" y="378"/>
    </contour>
  </outline>
</glyph>
<glyph name="bulletoperator" format="1">
  <advance width="609"/>
  <unicode hex="2219"/>
  <note>
    GF Latin Plus glyph
  </note>
  <outline>
    <contour>
      <point x="245" y="318" type="line" smooth="yes"/>
      <point x="245" y="304"/>
      <point x="255" y="295"/>
      <point x="269" y="295" type="curve" smooth="yes"/>
      <point x="339" y="295" type="line" smooth="yes"/>
      <point x="353" y="295"/>
      <point x="364" y="300"/>
      <point x="364" y="318" type="curve" smooth="yes"/>
      <point x="364" y="392" type="line" smooth="yes"/>
      <point x="364" y="408"/>
      <point x="357" y="417"/>
      <point x="339" y="417" type="curve" smooth="yes"/>
      <point x="269" y="417" type="line" smooth="yes"/>
      <point x="253" y="417"/>
      <point x="245" y="407"/>
      <point x="245" y="392" type="curve" smooth="yes"/>
    </contour>
  </outline>
</glyph>
<glyph name="radical" format="1">
  <advance width="647"/>
  <unicode hex="221A"/>
  <outline>
    <contour>
      <point x="18" y="258" type="line"/>
      <point x="84" y="258" type="line"/>
      <point x="206" y="0" type="line"/>
      <point x="326" y="0" type="line"/>
      <point x="629" y="800" type="line"/>
      <point x="494" y="800" type="line"/>
      <point x="257" y="171" type="line"/>
      <point x="172" y="370" type="line"/>
      <point x="18" y="370" type="line"/>
    </contour>
  </outline>
</glyph>
<glyph name="integral" format="1">
  <advance width="448"/>
  <unicode hex="222B"/>
  <outline>
    <contour>
      <point x="18" y="-110" type="line"/>
      <point x="18" y="-186" type="line"/>
      <point x="37" y="-195"/>
      <point x="80" y="-203"/>
      <point x="117" y="-203" type="curve" smooth="yes"/>
      <point x="240" y="-203"/>
      <point x="285" y="-110"/>
      <point x="285" y="18" type="curve" smooth="yes"/>
      <point x="285" y="593" type="line" smooth="yes"/>
      <point x="285" y="657"/>
      <point x="304" y="706"/>
      <point x="372" y="706" type="curve" smooth="yes"/>
      <point x="430" y="706" type="line"/>
      <point x="430" y="782" type="line"/>
      <point x="413" y="787"/>
      <point x="389" y="799"/>
      <point x="324" y="799" type="curve" smooth="yes"/>
      <point x="207" y="799"/>
      <point x="162" y="714"/>
      <point x="162" y="598" type="curve" smooth="yes"/>
      <point x="162" y="9" type="line" smooth="yes"/>
      <point x="162" y="-77"/>
      <point x="127" y="-110"/>
      <point x="77" y="-110" type="curve" smooth="yes"/>
    </contour>
  </outline>
</glyph>
<glyph name="f_f" format="1">
  <advance width="782"/>
  <unicode hex="FB00"/>
  <note>
    GF Latin Plus glyph
  </note>
  <outline>
    <contour>
      <point x="14" y="436" type="line"/>
      <point x="92" y="436" type="line"/>
      <point x="92" y="0" type="line"/>
      <point x="216" y="0" type="line"/>
      <point x="216" y="436" type="line"/>
      <point x="550" y="436" type="line"/>
      <point x="550" y="536" type="line"/>
      <point x="216" y="536" type="line"/>
      <point x="216" y="581" type="line" smooth="yes"/>
      <point x="216" y="639"/>
      <point x="232" y="668"/>
      <point x="291" y="668" type="curve" smooth="yes"/>
      <point x="319" y="668"/>
      <point x="353" y="666"/>
      <point x="376" y="664" type="curve"/>
      <point x="376" y="753" type="line"/>
      <point x="348" y="762"/>
      <point x="303" y="769"/>
      <point x="250" y="769" type="curve" smooth="yes"/>
      <point x="139" y="769"/>
      <point x="92" y="723"/>
      <point x="92" y="598" type="curve" smooth="yes"/>
      <point x="92" y="536" type="line"/>
      <point x="14" y="516" type="line"/>
    </contour>
    <component base="f" xOffset="391"/>
  </outline>
</glyph>
<glyph name="f_f_i" format="1">
  <advance width="1033"/>
  <unicode hex="FB03"/>
  <note>
    GF Latin Plus glyph
  </note>
  <outline>
    <contour>
      <point x="14" y="436" type="line"/>
      <point x="92" y="436" type="line"/>
      <point x="92" y="0" type="line"/>
      <point x="216" y="0" type="line"/>
      <point x="216" y="436" type="line"/>
      <point x="544" y="436" type="line"/>
      <point x="544" y="536" type="line"/>
      <point x="216" y="536" type="line"/>
      <point x="216" y="581" type="line" smooth="yes"/>
      <point x="216" y="639"/>
      <point x="232" y="668"/>
      <point x="291" y="668" type="curve" smooth="yes"/>
      <point x="319" y="668"/>
      <point x="353" y="666"/>
      <point x="376" y="664" type="curve"/>
      <point x="376" y="753" type="line"/>
      <point x="348" y="762"/>
      <point x="303" y="769"/>
      <point x="250" y="769" type="curve" smooth="yes"/>
      <point x="139" y="769"/>
      <point x="92" y="723"/>
      <point x="92" y="598" type="curve" smooth="yes"/>
      <point x="92" y="536" type="line"/>
      <point x="14" y="516" type="line"/>
    </contour>
    <component base="fi" xOffset="391"/>
  </outline>
</glyph>
<glyph name="f_f_l" format="1">
  <advance width="1088"/>
  <unicode hex="FB04"/>
  <note>
    GF Latin Plus glyph
  </note>
  <outline>
    <contour>
      <point x="14" y="436" type="line"/>
      <point x="92" y="436" type="line"/>
      <point x="92" y="0" type="line"/>
      <point x="216" y="0" type="line"/>
      <point x="216" y="436" type="line"/>
      <point x="546" y="436" type="line"/>
      <point x="546" y="536" type="line"/>
      <point x="216" y="536" type="line"/>
      <point x="216" y="581" type="line" smooth="yes"/>
      <point x="216" y="639"/>
      <point x="232" y="668"/>
      <point x="291" y="668" type="curve" smooth="yes"/>
      <point x="319" y="668"/>
      <point x="353" y="666"/>
      <point x="376" y="664" type="curve"/>
      <point x="376" y="753" type="line"/>
      <point x="348" y="762"/>
      <point x="303" y="769"/>
      <point x="250" y="769" type="curve" smooth="yes"/>
      <point x="139" y="769"/>
      <point x="92" y="723"/>
      <point x="92" y="598" type="curve" smooth="yes"/>
      <point x="92" y="536" type="line"/>
      <point x="14" y="516" type="line"/>
    </contour>
    <component base="fl" xOffset="391"/>
  </outline>
</glyph>
<glyph name="AE.smcp" format="1">
  <advance width="810"/>
  <outline>
    <contour>
      <point x="262" y="206" type="line"/>
      <point x="389" y="430" type="line"/>
      <point x="389" y="206" type="line"/>
    </contour>
    <contour>
      <point x="26" y="0" type="line"/>
      <point x="141" y="0" type="line"/>
      <point x="216" y="118" type="line"/>
      <point x="395" y="118" type="line"/>
      <point x="389" y="86" type="line" smooth="yes"/>
      <point x="397" y="16"/>
      <point x="445" y="-5"/>
      <point x="533" y="-4" type="curve" smooth="yes"/>
      <point x="602" y="-4"/>
      <point x="714" y="2"/>
      <point x="762" y="8" type="curve"/>
      <point x="762" y="93" type="line"/>
      <point x="556" y="93" type="line" smooth="yes"/>
      <point x="518" y="93"/>
      <point x="498" y="107"/>
      <point x="498" y="143" type="curve" smooth="yes"/>
      <point x="498" y="231" type="line"/>
      <point x="725" y="238" type="line"/>
      <point x="725" y="321" type="line"/>
      <point x="498" y="327" type="line"/>
      <point x="498" y="422" type="line" smooth="yes"/>
      <point x="498" y="449"/>
      <point x="508" y="464"/>
      <point x="544" y="464" type="curve" smooth="yes"/>
      <point x="762" y="464" type="line"/>
      <point x="762" y="550" type="line"/>
      <point x="725" y="554"/>
      <point x="595" y="560"/>
      <point x="522" y="560" type="curve" smooth="yes"/>
      <point x="398" y="560"/>
      <point x="335" y="537"/>
      <point x="279" y="437" type="curve" smooth="yes"/>
    </contour>
    <contour>
      <point x="439" y="654" type="move" name="top"/>
    </contour>
  </outline>
</glyph>
<glyph name="D.smcp" format="1">
  <advance width="570"/>
  <outline>
    <contour>
      <point x="181" y="100" type="line"/>
      <point x="181" y="460" type="line"/>
      <point x="303" y="460" type="line" smooth="yes"/>
      <point x="369" y="460"/>
      <point x="403" y="426"/>
      <point x="403" y="280" type="curve" smooth="yes"/>
      <point x="403" y="161"/>
      <point x="376" y="100"/>
      <point x="303" y="100" type="curve" smooth="yes"/>
    </contour>
    <contour>
      <point x="63" y="0" type="line"/>
      <point x="314" y="0" type="line" smooth="yes"/>
      <point x="453" y="0"/>
      <point x="521" y="92"/>
      <point x="521" y="280" type="curve" smooth="yes"/>
      <point x="521" y="446"/>
      <point x="475" y="560"/>
      <point x="314" y="560" type="curve" smooth="yes"/>
      <point x="63" y="560" type="line"/>
    </contour>
    <contour>
      <point x="275" y="650" type="move" name="top"/>
    </contour>
    <contour>
      <point x="249" y="-150" type="move" name="bottom"/>
    </contour>
  </outline>
</glyph>
<glyph name="E.smcp" format="1">
  <advance width="503"/>
  <outline>
    <contour>
      <point x="63" y="114" type="line" smooth="yes"/>
      <point x="63" y="5"/>
      <point x="156" y="-4"/>
      <point x="207" y="-4" type="curve" smooth="yes"/>
      <point x="266" y="-4"/>
      <point x="404" y="1"/>
      <point x="455" y="7" type="curve"/>
      <point x="455" y="93" type="line"/>
      <point x="231" y="93" type="line" smooth="yes"/>
      <point x="205" y="93"/>
      <point x="181" y="104"/>
      <point x="181" y="143" type="curve" smooth="yes"/>
      <point x="181" y="231" type="line"/>
      <point x="417" y="238" type="line"/>
      <point x="417" y="321" type="line"/>
      <point x="181" y="327" type="line"/>
      <point x="181" y="417" type="line" smooth="yes"/>
      <point x="181" y="449"/>
      <point x="201" y="464"/>
      <point x="234" y="464" type="curve" smooth="yes"/>
      <point x="455" y="464" type="line"/>
      <point x="455" y="550" type="line"/>
      <point x="415" y="554"/>
      <point x="297" y="560"/>
      <point x="199" y="560" type="curve" smooth="yes"/>
      <point x="136" y="560"/>
      <point x="63" y="533"/>
      <point x="63" y="437" type="curve" smooth="yes"/>
    </contour>
    <contour>
      <point x="263" y="650" type="move" name="top"/>
    </contour>
    <contour>
      <point x="445" y="7" type="move" name="ogonek"/>
    </contour>
    <contour>
      <point x="279" y="-150" type="move" name="bottom"/>
    </contour>
  </outline>
</glyph>
<glyph name="Eng.smcp" format="1">
  <advance width="583"/>
  <outline>
    <contour>
      <point x="279" y="-180" type="line"/>
      <point x="303" y="-188"/>
      <point x="341" y="-195"/>
      <point x="376" y="-195" type="curve" smooth="yes"/>
      <point x="485" y="-195"/>
      <point x="530" y="-148"/>
      <point x="530" y="-53" type="curve" smooth="yes"/>
      <point x="530" y="48" type="line"/>
      <point x="412" y="48" type="line"/>
      <point x="412" y="-37" type="line" smooth="yes"/>
      <point x="412" y="-79"/>
      <point x="392" y="-95"/>
      <point x="353" y="-95" type="curve" smooth="yes"/>
      <point x="347" y="-95"/>
      <point x="285" y="-93"/>
      <point x="279" y="-91" type="curve"/>
    </contour>
    <component base="N.smcp"/>
  </outline>
</glyph>
<glyph name="G.smcp" format="1">
  <advance width="558"/>
  <outline>
    <contour>
      <point x="49" y="280" type="curve" smooth="yes"/>
      <point x="49" y="108"/>
      <point x="83" y="-4"/>
      <point x="232" y="-4" type="curve" smooth="yes"/>
      <point x="299" y="-4"/>
      <point x="359" y="23"/>
      <point x="390" y="41" type="curve"/>
      <point x="406" y="0" type="line"/>
      <point x="495" y="0" type="line"/>
      <point x="495" y="318" type="line"/>
      <point x="472" y="318"/>
      <point x="445" y="319"/>
      <point x="411" y="319" type="curve" smooth="yes"/>
      <point x="365" y="319"/>
      <point x="307" y="316"/>
      <point x="274" y="312" type="curve"/>
      <point x="274" y="226" type="line"/>
      <point x="393" y="226" type="line"/>
      <point x="393" y="115" type="line"/>
      <point x="367" y="107"/>
      <point x="320" y="99"/>
      <point x="270" y="99" type="curve" smooth="yes"/>
      <point x="191" y="99"/>
      <point x="167" y="133"/>
      <point x="167" y="279" type="curve" smooth="yes"/>
      <point x="167" y="419"/>
      <point x="186" y="465"/>
      <point x="289" y="465" type="curve" smooth="yes"/>
      <point x="362" y="465"/>
      <point x="432" y="459"/>
      <point x="467" y="454" type="curve"/>
      <point x="467" y="541" type="line"/>
      <point x="406" y="555"/>
      <point x="348" y="565"/>
      <point x="267" y="565" type="curve" smooth="yes"/>
      <point x="88" y="565"/>
      <point x="49" y="459"/>
    </contour>
    <contour>
      <point x="273" y="650" type="move" name="top"/>
    </contour>
    <contour>
      <point x="294" y="-150" type="move" name="bottom"/>
    </contour>
  </outline>
</glyph>
<glyph name="Hbar.smcp" format="1">
  <advance width="588"/>
  <outline>
    <contour>
      <point x="22" y="392" type="line"/>
      <point x="566" y="392" type="line"/>
      <point x="566" y="448" type="line"/>
      <point x="22" y="448" type="line"/>
    </contour>
    <component base="H.smcp"/>
  </outline>
</glyph>
<glyph name="J.smcp" format="1">
  <advance width="348"/>
  <outline>
    <contour>
      <point x="33" y="10" type="line"/>
      <point x="57" y="3"/>
      <point x="95" y="-5"/>
      <point x="130" y="-5" type="curve" smooth="yes"/>
      <point x="239" y="-5"/>
      <point x="284" y="42"/>
      <point x="284" y="137" type="curve" smooth="yes"/>
      <point x="284" y="560" type="line"/>
      <point x="166" y="560" type="line"/>
      <point x="166" y="154" type="line" smooth="yes"/>
      <point x="166" y="111"/>
      <point x="145" y="95"/>
      <point x="104" y="95" type="curve" smooth="yes"/>
      <point x="97" y="95"/>
      <point x="39" y="97"/>
      <point x="33" y="99" type="curve"/>
    </contour>
    <contour>
      <point x="225" y="650" type="move" name="top"/>
    </contour>
  </outline>
</glyph>
<glyph name="L.smcp" format="1">
  <advance width="453"/>
  <outline>
    <contour>
      <point x="63" y="127" type="line" smooth="yes"/>
      <point x="63" y="35"/>
      <point x="109" y="0"/>
      <point x="198" y="0" type="curve" smooth="yes"/>
      <point x="423" y="0" type="line"/>
      <point x="423" y="100" type="line"/>
      <point x="234" y="100" type="line" smooth="yes"/>
      <point x="203" y="100"/>
      <point x="181" y="112"/>
      <point x="181" y="150" type="curve" smooth="yes"/>
      <point x="181" y="560" type="line"/>
      <point x="63" y="560" type="line"/>
    </contour>
    <contour>
      <point x="122" y="650" type="move" name="top"/>
    </contour>
    <contour>
      <point x="201" y="490" type="move" name="altcaron"/>
    </contour>
    <contour>
      <point x="285" y="350" type="move" name="dot"/>
    </contour>
    <contour>
      <point x="244" y="-150" type="move" name="bottom"/>
    </contour>
  </outline>
</glyph>
<glyph name="Lslash.smcp" format="1">
  <advance width="453"/>
  <outline>
    <contour>
      <point x="9" y="230" type="line"/>
      <point x="77" y="258" type="line"/>
      <point x="169" y="282" type="line"/>
      <point x="284" y="329" type="line"/>
      <point x="284" y="389" type="line"/>
      <point x="169" y="341" type="line"/>
      <point x="77" y="317" type="line"/>
      <point x="9" y="290" type="line"/>
    </contour>
    <component base="L.smcp"/>
  </outline>
</glyph>
<glyph name="M.smcp" format="1">
  <advance width="732"/>
  <outline>
    <contour>
      <point x="47" y="0" type="line"/>
      <point x="161" y="0" type="line"/>
      <point x="211" y="413" type="line"/>
      <point x="197" y="412" type="line"/>
      <point x="316" y="0" type="line"/>
      <point x="415" y="0" type="line"/>
      <point x="531" y="412" type="line"/>
      <point x="519" y="414" type="line"/>
      <point x="571" y="0" type="line"/>
      <point x="685" y="0" type="line"/>
      <point x="614" y="560" type="line"/>
      <point x="504" y="560" type="line"/>
      <point x="366" y="124" type="line"/>
      <point x="227" y="560" type="line"/>
      <point x="116" y="560" type="line"/>
    </contour>
    <contour>
      <point x="360" y="650" type="move" name="top"/>
    </contour>
    <contour>
      <point x="360" y="-150" type="move" name="bottom"/>
    </contour>
  </outline>
</glyph>
<glyph name="N.salt" format="1">
  <advance width="770"/>
  <outline>
    <contour>
      <point x="77" y="0" type="line"/>
      <point x="201" y="0" type="line"/>
      <point x="201" y="585" type="line" smooth="yes"/>
      <point x="201" y="615"/>
      <point x="214" y="622"/>
      <point x="230" y="622" type="curve" smooth="yes"/>
      <point x="244" y="622"/>
      <point x="253" y="613"/>
      <point x="258" y="598" type="curve" smooth="yes"/>
      <point x="422" y="111" type="line" smooth="yes"/>
      <point x="447" y="33"/>
      <point x="485" y="-6"/>
      <point x="566" y="-6" type="curve" smooth="yes"/>
      <point x="649" y="-6"/>
      <point x="710" y="28"/>
      <point x="710" y="135" type="curve" smooth="yes"/>
      <point x="710" y="738" type="line"/>
      <point x="586" y="738" type="line"/>
      <point x="586" y="150" type="line" smooth="yes"/>
      <point x="586" y="124"/>
      <point x="573" y="117"/>
      <point x="558" y="117" type="curve" smooth="yes"/>
      <point x="543" y="117"/>
      <point x="534" y="125"/>
      <point x="528" y="141" type="curve" smooth="yes"/>
      <point x="366" y="623" type="line" smooth="yes"/>
      <point x="343" y="695"/>
      <point x="308" y="745"/>
      <point x="220" y="745" type="curve" smooth="yes"/>
      <point x="137" y="745"/>
      <point x="77" y="709"/>
      <point x="77" y="597" type="curve" smooth="yes"/>
    </contour>
    <contour>
      <point x="412" y="810" type="move" name="top"/>
    </contour>
    <contour>
      <point x="400" y="-150" type="move" name="bottom"/>
    </contour>
  </outline>
</glyph>
<glyph name="O.smcp" format="1">
  <advance width="585"/>
  <outline>
    <contour>
      <point x="167" y="279" type="curve" smooth="yes"/>
      <point x="167" y="440"/>
      <point x="199" y="465"/>
      <point x="292" y="465" type="curve" smooth="yes"/>
      <point x="388" y="465"/>
      <point x="419" y="440"/>
      <point x="419" y="279" type="curve" smooth="yes"/>
      <point x="419" y="125"/>
      <point x="388" y="95"/>
      <point x="292" y="95" type="curve" smooth="yes"/>
      <point x="195" y="95"/>
      <point x="167" y="125"/>
    </contour>
    <contour>
      <point x="49" y="279" type="curve" smooth="yes"/>
      <point x="49" y="39"/>
      <point x="131" y="-5"/>
      <point x="292" y="-5" type="curve" smooth="yes"/>
      <point x="454" y="-5"/>
      <point x="537" y="39"/>
      <point x="537" y="279" type="curve" smooth="yes"/>
      <point x="537" y="519"/>
      <point x="455" y="565"/>
      <point x="292" y="565" type="curve" smooth="yes"/>
      <point x="132" y="565"/>
      <point x="49" y="519"/>
    </contour>
    <contour>
      <point x="292" y="654" type="move" name="top"/>
    </contour>
    <contour>
      <point x="344" y="0" type="move" name="ogonek"/>
    </contour>
    <contour>
      <point x="292" y="-150" type="move" name="bottom"/>
    </contour>
  </outline>
</glyph>
<glyph name="R.smcp" format="1">
  <advance width="531"/>
  <outline>
    <contour>
      <point x="63" y="0" type="line"/>
      <point x="181" y="0" type="line"/>
      <point x="181" y="194" type="line"/>
      <point x="208" y="193"/>
      <point x="273" y="192"/>
      <point x="295" y="192" type="curve"/>
      <point x="390" y="0" type="line"/>
      <point x="502" y="0" type="line"/>
      <point x="397" y="218" type="line"/>
      <point x="442" y="235"/>
      <point x="489" y="273"/>
      <point x="489" y="374" type="curve" smooth="yes"/>
      <point x="489" y="515"/>
      <point x="411" y="560"/>
      <point x="308" y="560" type="curve" smooth="yes"/>
      <point x="63" y="560" type="line"/>
    </contour>
    <contour>
      <point x="181" y="281" type="line"/>
      <point x="181" y="466" type="line"/>
      <point x="295" y="466" type="line" smooth="yes"/>
      <point x="342" y="466"/>
      <point x="371" y="436"/>
      <point x="371" y="370" type="curve" smooth="yes"/>
      <point x="371" y="305"/>
      <point x="340" y="281"/>
      <point x="290" y="281" type="curve" smooth="yes"/>
    </contour>
    <contour>
      <point x="256" y="650" type="move" name="top"/>
    </contour>
    <contour>
      <point x="256" y="-150" type="move" name="bottom"/>
    </contour>
  </outline>
</glyph>
<glyph name="S.smcp" format="1">
  <advance width="497"/>
  <outline>
    <contour>
      <point x="48" y="380" type="line" smooth="yes"/>
      <point x="48" y="268"/>
      <point x="111" y="229"/>
      <point x="224" y="229" type="curve" smooth="yes"/>
      <point x="283" y="229" type="line" smooth="yes"/>
      <point x="326" y="229"/>
      <point x="343" y="211"/>
      <point x="343" y="178" type="curve" smooth="yes"/>
      <point x="343" y="150" type="line" smooth="yes"/>
      <point x="343" y="104"/>
      <point x="298" y="95"/>
      <point x="237" y="95" type="curve" smooth="yes"/>
      <point x="177" y="95"/>
      <point x="103" y="97"/>
      <point x="56" y="101" type="curve"/>
      <point x="56" y="14" type="line"/>
      <point x="105" y="3"/>
      <point x="181" y="-5"/>
      <point x="242" y="-5" type="curve" smooth="yes"/>
      <point x="365" y="-5"/>
      <point x="449" y="24"/>
      <point x="449" y="155" type="curve" smooth="yes"/>
      <point x="449" y="187" type="line" smooth="yes"/>
      <point x="449" y="270"/>
      <point x="396" y="327"/>
      <point x="291" y="327" type="curve" smooth="yes"/>
      <point x="224" y="327" type="line" smooth="yes"/>
      <point x="179" y="327"/>
      <point x="154" y="341"/>
      <point x="154" y="381" type="curve" smooth="yes"/>
      <point x="154" y="402" type="line" smooth="yes"/>
      <point x="154" y="453"/>
      <point x="198" y="465"/>
      <point x="254" y="465" type="curve" smooth="yes"/>
      <point x="305" y="465"/>
      <point x="371" y="461"/>
      <point x="420" y="457" type="curve"/>
      <point x="420" y="546" type="line"/>
      <point x="376" y="554"/>
      <point x="305" y="565"/>
      <point x="240" y="565" type="curve" smooth="yes"/>
      <point x="116" y="565"/>
      <point x="48" y="516"/>
      <point x="48" y="407" type="curve" smooth="yes"/>
    </contour>
    <contour>
      <point x="244" y="650" type="move" name="top"/>
    </contour>
    <contour>
      <point x="244" y="-150" type="move" name="bottom"/>
    </contour>
  </outline>
</glyph>
<glyph name="Thorn.smcp" format="1">
  <advance width="494"/>
  <outline>
    <contour>
      <point x="63" y="0" type="line"/>
      <point x="181" y="0" type="line"/>
      <point x="181" y="111" type="line"/>
      <point x="203" y="109"/>
      <point x="260" y="99"/>
      <point x="289" y="99" type="curve" smooth="yes"/>
      <point x="362" y="99"/>
      <point x="456" y="124"/>
      <point x="456" y="287" type="curve" smooth="yes"/>
      <point x="456" y="448"/>
      <point x="362" y="469"/>
      <point x="285" y="469" type="curve" smooth="yes"/>
      <point x="181" y="469" type="line"/>
      <point x="181" y="560" type="line"/>
      <point x="63" y="560" type="line"/>
    </contour>
    <contour>
      <point x="181" y="200" type="line"/>
      <point x="181" y="369" type="line"/>
      <point x="274" y="369" type="line" smooth="yes"/>
      <point x="312" y="369"/>
      <point x="338" y="346"/>
      <point x="338" y="286" type="curve" smooth="yes"/>
      <point x="338" y="224"/>
      <point x="313" y="200"/>
      <point x="271" y="200" type="curve" smooth="yes"/>
    </contour>
  </outline>
</glyph>
<glyph name="Uhorn.smcp" format="1">
  <advance width="574"/>
  <outline>
    <contour>
      <point x="417" y="492" type="line"/>
      <point x="478" y="492" type="line" smooth="yes"/>
      <point x="558" y="492"/>
      <point x="617" y="548"/>
      <point x="617" y="671" type="curve"/>
      <point x="530" y="671" type="line"/>
      <point x="530" y="588"/>
      <point x="502" y="560"/>
      <point x="456" y="560" type="curve" smooth="yes"/>
      <point x="417" y="560" type="line"/>
    </contour>
    <component base="U.smcp"/>
    <contour>
      <point x="286" y="650" type="move" name="top"/>
    </contour>
    <contour>
      <point x="286" y="-150" type="move" name="bottom"/>
    </contour>
  </outline>
</glyph>
<glyph name="W.salt.smcp" format="1">
  <advance width="854"/>
  <outline>
    <contour>
      <point x="26" y="560" type="line"/>
      <point x="193" y="0" type="line"/>
      <point x="347" y="0" type="line"/>
      <point x="426" y="227" type="line"/>
      <point x="513" y="0" type="line"/>
      <point x="667" y="0" type="line"/>
      <point x="828" y="560" type="line"/>
      <point x="707" y="560" type="line"/>
      <point x="582" y="126" type="line"/>
      <point x="485" y="394" type="line"/>
      <point x="531" y="560" type="line"/>
      <point x="409" y="560" type="line"/>
      <point x="280" y="126" type="line"/>
      <point x="148" y="560" type="line"/>
    </contour>
    <contour>
      <point x="452" y="650" type="move" name="top"/>
    </contour>
    <contour>
      <point x="432" y="-150" type="move" name="bottom"/>
    </contour>
  </outline>
</glyph>
<glyph name="ampersand.salt" format="1">
  <advance width="979"/>
  <outline>
    <contour>
      <point x="365" y="258" type="line"/>
      <point x="365" y="333"/>
      <point x="393" y="358"/>
      <point x="438" y="358" type="curve" smooth="yes"/>
      <point x="489" y="358" type="line" smooth="yes"/>
      <point x="527" y="358"/>
      <point x="549" y="351"/>
      <point x="549" y="308" type="curve" smooth="yes"/>
      <point x="549" y="267"/>
      <point x="532" y="258"/>
      <point x="489" y="258" type="curve" smooth="yes"/>
    </contour>
    <contour>
      <point x="150" y="335" type="curve" smooth="yes"/>
      <point x="150" y="407" type="line" smooth="yes"/>
      <point x="150" y="489"/>
      <point x="193" y="510"/>
      <point x="279" y="510" type="curve" smooth="yes"/>
      <point x="735" y="510" type="line"/>
      <point x="735" y="222" type="line" smooth="yes"/>
      <point x="735" y="129"/>
      <point x="671" y="96"/>
      <point x="584" y="96" type="curve" smooth="yes"/>
      <point x="461" y="96" type="line" smooth="yes"/>
      <point x="391" y="96"/>
      <point x="365" y="115"/>
      <point x="365" y="176" type="curve"/>
      <point x="520" y="176" type="line" smooth="yes"/>
      <point x="596" y="176"/>
      <point x="660" y="205"/>
      <point x="660" y="299" type="curve" smooth="yes"/>
      <point x="660" y="407"/>
      <point x="588" y="439"/>
      <point x="486" y="439" type="curve" smooth="yes"/>
      <point x="424" y="439" type="line" smooth="yes"/>
      <point x="305" y="439"/>
      <point x="251" y="377"/>
      <point x="241" y="258" type="curve"/>
      <point x="188" y="258"/>
      <point x="150" y="273"/>
    </contour>
    <contour>
      <point x="39" y="330" type="line" smooth="yes"/>
      <point x="39" y="207"/>
      <point x="132" y="172"/>
      <point x="241" y="172" type="curve"/>
      <point x="247" y="40"/>
      <point x="342" y="-4"/>
      <point x="461" y="-4" type="curve" smooth="yes"/>
      <point x="592" y="-4" type="line" smooth="yes"/>
      <point x="729" y="-4"/>
      <point x="853" y="55"/>
      <point x="853" y="220" type="curve" smooth="yes"/>
      <point x="853" y="510" type="line"/>
      <point x="961" y="524" type="line"/>
      <point x="961" y="606" type="line"/>
      <point x="853" y="606" type="line"/>
      <point x="853" y="731" type="line"/>
      <point x="748" y="731" type="line"/>
      <point x="735" y="607" type="line"/>
      <point x="270" y="607" type="line" smooth="yes"/>
      <point x="122" y="607"/>
      <point x="39" y="560"/>
      <point x="39" y="407" type="curve" smooth="yes"/>
    </contour>
  </outline>
</glyph>
<glyph name="bracketleft.smcp" format="1">
  <advance width="296"/>
  <outline>
    <contour>
      <point x="65" y="30" type="line" smooth="yes"/>
      <point x="65" y="-36"/>
      <point x="84" y="-127"/>
      <point x="209" y="-127" type="curve" smooth="yes"/>
      <point x="273" y="-127" type="line"/>
      <point x="273" y="-38" type="line"/>
      <point x="244" y="-38" type="line" smooth="yes"/>
      <point x="204" y="-38"/>
      <point x="183" y="-13"/>
      <point x="183" y="35" type="curve" smooth="yes"/>
      <point x="183" y="506" type="line" smooth="yes"/>
      <point x="183" y="561"/>
      <point x="207" y="580"/>
      <point x="244" y="580" type="curve" smooth="yes"/>
      <point x="273" y="580" type="line"/>
      <point x="273" y="669" type="line"/>
      <point x="209" y="669" type="line" smooth="yes"/>
      <point x="102" y="669"/>
      <point x="65" y="607"/>
      <point x="65" y="523" type="curve" smooth="yes"/>
    </contour>
  </outline>
</glyph>
<glyph name="brevecomb_hookabovecomb" format="1">
  <outline>
    <contour>
      <point x="-412" y="731" type="line"/>
      <point x="-412" y="648"/>
      <point x="-357" y="614"/>
      <point x="-276" y="614" type="curve" smooth="yes"/>
      <point x="-194" y="614"/>
      <point x="-138" y="647"/>
      <point x="-138" y="731" type="curve"/>
      <point x="-197" y="731" type="line"/>
      <point x="-197" y="682"/>
      <point x="-230" y="665"/>
      <point x="-276" y="665" type="curve" smooth="yes"/>
      <point x="-316" y="664"/>
      <point x="-354" y="681"/>
      <point x="-354" y="731" type="curve"/>
    </contour>
    <component base="hookabovecomb" xOffset="39" yOffset="109"/>
    <contour>
      <point x="-269" y="650" type="move" name="_top"/>
    </contour>
  </outline>
</glyph>
<glyph name="c_h" format="1">
  <advance width="1078"/>
  <outline>
    <contour>
      <point x="309" y="-6" type="curve" smooth="yes"/>
      <point x="552" y="-6"/>
      <point x="673" y="62"/>
      <point x="673" y="236" type="curve" smooth="yes"/>
      <point x="673" y="389" type="line"/>
      <point x="713" y="415"/>
      <point x="753" y="433"/>
      <point x="805" y="433" type="curve" smooth="yes"/>
      <point x="858" y="433"/>
      <point x="894" y="399"/>
      <point x="894" y="343" type="curve" smooth="yes"/>
      <point x="894" y="0" type="line"/>
      <point x="1018" y="0" type="line"/>
      <point x="1018" y="358" type="line" smooth="yes"/>
      <point x="1018" y="466"/>
      <point x="972" y="545"/>
      <point x="853" y="545" type="curve" smooth="yes"/>
      <point x="785" y="545"/>
      <point x="715" y="512"/>
      <point x="673" y="480" type="curve"/>
      <point x="673" y="762" type="line"/>
      <point x="549" y="762" type="line"/>
      <point x="549" y="234" type="line" smooth="yes"/>
      <point x="549" y="124"/>
      <point x="468" y="88"/>
      <point x="326" y="88" type="curve" smooth="yes"/>
      <point x="227" y="88"/>
      <point x="170" y="118"/>
      <point x="170" y="266" type="curve" smooth="yes"/>
      <point x="170" y="417"/>
      <point x="213" y="451"/>
      <point x="308" y="451" type="curve" smooth="yes"/>
      <point x="454" y="451" type="line"/>
      <point x="454" y="522" type="line"/>
      <point x="392" y="538"/>
      <point x="332" y="543"/>
      <point x="271" y="543" type="curve" smooth="yes"/>
      <point x="130" y="543"/>
      <point x="46" y="486"/>
      <point x="46" y="266" type="curve" smooth="yes"/>
      <point x="46" y="51"/>
      <point x="156" y="-6"/>
    </contour>
  </outline>
</glyph>
<glyph name="cedi.smcp" format="1">
  <advance width="513"/>
  <outline>
    <contour>
      <point x="334" y="-67" type="line"/>
      <point x="334" y="600" type="line"/>
      <point x="281" y="600" type="line"/>
      <point x="281" y="-67" type="line"/>
    </contour>
    <contour>
      <point x="54" y="275" type="curve" smooth="yes"/>
      <point x="54" y="42"/>
      <point x="137" y="-5"/>
      <point x="277" y="-5" type="curve" smooth="yes"/>
      <point x="365" y="-5"/>
      <point x="423" y="5"/>
      <point x="460" y="20" type="curve"/>
      <point x="460" y="100" type="line"/>
      <point x="423" y="93"/>
      <point x="379" y="90"/>
      <point x="304" y="90" type="curve" smooth="yes"/>
      <point x="190" y="90"/>
      <point x="161" y="123"/>
      <point x="161" y="274" type="curve" smooth="yes"/>
      <point x="161" y="440"/>
      <point x="206" y="463"/>
      <point x="313" y="463" type="curve" smooth="yes"/>
      <point x="356" y="463"/>
      <point x="418" y="458"/>
      <point x="460" y="453" type="curve"/>
      <point x="460" y="534" type="line"/>
      <point x="432" y="544"/>
      <point x="370" y="558"/>
      <point x="287" y="558" type="curve" smooth="yes"/>
      <point x="150" y="558"/>
      <point x="54" y="506"/>
    </contour>
  </outline>
</glyph>
<glyph name="circumflexcomb_acutecomb" format="1">
  <outline>
    <contour>
      <point x="-422" y="631" type="line"/>
      <point x="-349" y="631" type="line"/>
      <point x="-268" y="680" type="line"/>
      <point x="-193" y="631" type="line"/>
      <point x="-121" y="631" type="line"/>
      <point x="-224" y="736" type="line"/>
      <point x="-309" y="736" type="line"/>
    </contour>
    <contour>
      <point x="-179" y="713" type="line"/>
      <point x="-106" y="713" type="line"/>
      <point x="-17" y="840" type="line"/>
      <point x="-118" y="840" type="line"/>
    </contour>
    <contour>
      <point x="-269" y="650" type="move" name="_top"/>
    </contour>
  </outline>
</glyph>
<glyph name="circumflexcomb_gravecomb" format="1">
  <outline>
    <contour>
      <point x="-422" y="631" type="line"/>
      <point x="-349" y="631" type="line"/>
      <point x="-268" y="680" type="line"/>
      <point x="-193" y="631" type="line"/>
      <point x="-121" y="631" type="line"/>
      <point x="-224" y="736" type="line"/>
      <point x="-309" y="736" type="line"/>
    </contour>
    <contour>
      <point x="-431" y="713" type="line"/>
      <point x="-358" y="713" type="line"/>
      <point x="-419" y="840" type="line"/>
      <point x="-520" y="840" type="line"/>
    </contour>
    <contour>
      <point x="-269" y="650" type="move" name="_top"/>
    </contour>
  </outline>
</glyph>
<glyph name="circumflexcomb_hookabovecomb" format="1">
  <outline>
    <contour>
      <point x="-309" y="736" type="line"/>
      <point x="-422" y="631" type="line"/>
      <point x="-349" y="631" type="line"/>
      <point x="-268" y="680" type="line"/>
      <point x="-193" y="631" type="line"/>
      <point x="-121" y="631" type="line"/>
      <point x="-224" y="736" type="line"/>
    </contour>
    <contour>
      <point x="-181" y="801" type="line"/>
      <point x="-171" y="805"/>
      <point x="-158" y="807"/>
      <point x="-148" y="807" type="curve" smooth="yes"/>
      <point x="-125" y="807"/>
      <point x="-117" y="797"/>
      <point x="-117" y="779" type="curve" smooth="yes"/>
      <point x="-117" y="765"/>
      <point x="-126" y="749"/>
      <point x="-155" y="740" type="curve"/>
      <point x="-155" y="685" type="line"/>
      <point x="-87" y="704"/>
      <point x="-58" y="739"/>
      <point x="-58" y="786" type="curve" smooth="yes"/>
      <point x="-58" y="827"/>
      <point x="-81" y="852"/>
      <point x="-132" y="852" type="curve" smooth="yes"/>
      <point x="-150" y="852"/>
      <point x="-167" y="850"/>
      <point x="-181" y="845" type="curve"/>
    </contour>
    <contour>
      <point x="-269" y="650" type="move" name="_top"/>
    </contour>
  </outline>
</glyph>
<glyph name="circumflexcomb_tildecomb" format="1">
  <outline>
    <contour>
      <point x="-433" y="779" type="curve"/>
      <point x="-371" y="779" type="line"/>
      <point x="-370" y="800"/>
      <point x="-355" y="813"/>
      <point x="-333" y="813" type="curve" smooth="yes"/>
      <point x="-296" y="813"/>
      <point x="-250" y="780"/>
      <point x="-200" y="780" type="curve" smooth="yes"/>
      <point x="-147" y="780"/>
      <point x="-120" y="805"/>
      <point x="-114" y="878" type="curve"/>
      <point x="-177" y="878" type="line"/>
      <point x="-177" y="854"/>
      <point x="-194" y="840"/>
      <point x="-220" y="840" type="curve" smooth="yes"/>
      <point x="-259" y="840"/>
      <point x="-297" y="873"/>
      <point x="-348" y="873" type="curve" smooth="yes"/>
      <point x="-390" y="873"/>
      <point x="-428" y="857"/>
    </contour>
    <contour>
      <point x="-309" y="736" type="line"/>
      <point x="-422" y="631" type="line"/>
      <point x="-349" y="631" type="line"/>
      <point x="-268" y="680" type="line"/>
      <point x="-193" y="631" type="line"/>
      <point x="-121" y="631" type="line"/>
      <point x="-224" y="736" type="line"/>
    </contour>
    <contour>
      <point x="-269" y="650" type="move" name="_top"/>
    </contour>
  </outline>
</glyph>
<glyph name="colonsign.smcp" format="1">
  <advance width="513"/>
  <outline>
    <contour>
      <point x="250" y="-83" type="line"/>
      <point x="493" y="600" type="line"/>
      <point x="438" y="600" type="line"/>
      <point x="196" y="-83" type="line"/>
    </contour>
    <contour>
      <point x="137" y="-83" type="line"/>
      <point x="380" y="600" type="line"/>
      <point x="326" y="600" type="line"/>
      <point x="83" y="-83" type="line"/>
    </contour>
    <contour>
      <point x="50" y="283" type="curve" smooth="yes"/>
      <point x="50" y="45"/>
      <point x="132" y="-5"/>
      <point x="272" y="-5" type="curve" smooth="yes"/>
      <point x="360" y="-5"/>
      <point x="418" y="5"/>
      <point x="455" y="20" type="curve"/>
      <point x="455" y="95" type="line"/>
      <point x="418" y="88"/>
      <point x="375" y="85"/>
      <point x="299" y="85" type="curve" smooth="yes"/>
      <point x="185" y="85"/>
      <point x="156" y="126"/>
      <point x="156" y="281" type="curve" smooth="yes"/>
      <point x="156" y="452"/>
      <point x="202" y="478"/>
      <point x="310" y="478" type="curve" smooth="yes"/>
      <point x="354" y="478"/>
      <point x="391" y="473"/>
      <point x="421" y="469" type="curve"/>
      <point x="456" y="539" type="line"/>
      <point x="427" y="550"/>
      <point x="371" y="567"/>
      <point x="285" y="567" type="curve" smooth="yes"/>
      <point x="146" y="567"/>
      <point x="50" y="518"/>
    </contour>
  </outline>
</glyph>
<glyph name="commaturnedabovecomb" format="1">
  <note>
    GF Latin Plus glyph
  </note>
  <outline>
    <contour>
      <point x="-226" y="710" type="line"/>
      <point x="-226" y="760" type="line"/>
      <point x="-273" y="760" type="line" smooth="yes"/>
      <point x="-363" y="760"/>
      <point x="-387" y="720"/>
      <point x="-387" y="618" type="curve"/>
      <point x="-312" y="618" type="line"/>
      <point x="-313" y="685"/>
      <point x="-296" y="695"/>
      <point x="-255" y="703" type="curve" smooth="yes"/>
    </contour>
    <contour>
      <point x="-324" y="650" type="move" name="_top"/>
    </contour>
  </outline>
</glyph>
<glyph name="dblgravecomb.case" format="1">
  <note>
    GF Latin Plus glyph
  </note>
  <outline>
    <contour>
      <point x="-521" y="930" type="line"/>
      <point x="-403" y="791" type="line"/>
      <point x="-330" y="791" type="line"/>
      <point x="-420" y="930" type="line"/>
    </contour>
    <contour>
      <point x="-354" y="930" type="line"/>
      <point x="-236" y="791" type="line"/>
      <point x="-163" y="791" type="line"/>
      <point x="-253" y="930" type="line"/>
    </contour>
    <contour>
      <point x="-299" y="810" type="move" name="_top"/>
    </contour>
  </outline>
</glyph>
<glyph name="degree.smcp" format="1">
  <advance width="279"/>
  <outline>
    <contour>
      <point x="79" y="473" type="curve" smooth="yes"/>
      <point x="79" y="508"/>
      <point x="104" y="532"/>
      <point x="140" y="532" type="curve" smooth="yes"/>
      <point x="177" y="532"/>
      <point x="201" y="508"/>
      <point x="201" y="473" type="curve" smooth="yes"/>
      <point x="201" y="438"/>
      <point x="176" y="415"/>
      <point x="140" y="415" type="curve" smooth="yes"/>
      <point x="105" y="415"/>
      <point x="79" y="438"/>
    </contour>
    <contour>
      <point x="25" y="473" type="curve" smooth="yes"/>
      <point x="25" y="408"/>
      <point x="74" y="364"/>
      <point x="140" y="364" type="curve" smooth="yes"/>
      <point x="208" y="364"/>
      <point x="254" y="408"/>
      <point x="254" y="473" type="curve" smooth="yes"/>
      <point x="254" y="537"/>
      <point x="208" y="583"/>
      <point x="140" y="583" type="curve" smooth="yes"/>
      <point x="74" y="583"/>
      <point x="25" y="537"/>
    </contour>
  </outline>
</glyph>
<glyph name="dieresisbelowcomb" format="1">
  <note>
    GF Latin Plus glyph
  </note>
  <outline>
    <contour>
      <point x="-432" y="-188" type="line" smooth="yes"/>
      <point x="-432" y="-200"/>
      <point x="-424" y="-207"/>
      <point x="-413" y="-207" type="curve" smooth="yes"/>
      <point x="-356" y="-207" type="line" smooth="yes"/>
      <point x="-344" y="-207"/>
      <point x="-337" y="-201"/>
      <point x="-337" y="-188" type="curve" smooth="yes"/>
      <point x="-337" y="-98" type="line" smooth="yes"/>
      <point x="-337" y="-87"/>
      <point x="-343" y="-78"/>
      <point x="-356" y="-78" type="curve" smooth="yes"/>
      <point x="-413" y="-78" type="line" smooth="yes"/>
      <point x="-426" y="-78"/>
      <point x="-432" y="-86"/>
      <point x="-432" y="-98" type="curve" smooth="yes"/>
    </contour>
    <contour>
      <point x="-211" y="-188" type="line" smooth="yes"/>
      <point x="-211" y="-200"/>
      <point x="-204" y="-207"/>
      <point x="-192" y="-207" type="curve" smooth="yes"/>
      <point x="-135" y="-207" type="line" smooth="yes"/>
      <point x="-124" y="-207"/>
      <point x="-117" y="-201"/>
      <point x="-117" y="-188" type="curve" smooth="yes"/>
      <point x="-117" y="-98" type="line" smooth="yes"/>
      <point x="-117" y="-87"/>
      <point x="-123" y="-78"/>
      <point x="-135" y="-78" type="curve" smooth="yes"/>
      <point x="-192" y="-78" type="line" smooth="yes"/>
      <point x="-205" y="-78"/>
      <point x="-211" y="-86"/>
      <point x="-211" y="-98" type="curve" smooth="yes"/>
    </contour>
    <contour>
      <point x="-269" y="-150" type="move" name="_bottom"/>
    </contour>
  </outline>
</glyph>
<glyph name="dieresiscomb.case" format="1">
  <note>
    GF Latin Plus glyph
  </note>
  <outline>
    <contour>
      <point x="-434" y="822" type="line" smooth="yes"/>
      <point x="-434" y="810"/>
      <point x="-426" y="803"/>
      <point x="-415" y="803" type="curve" smooth="yes"/>
      <point x="-357" y="803" type="line" smooth="yes"/>
      <point x="-346" y="803"/>
      <point x="-339" y="809"/>
      <point x="-339" y="822" type="curve" smooth="yes"/>
      <point x="-339" y="912" type="line" smooth="yes"/>
      <point x="-339" y="923"/>
      <point x="-345" y="932"/>
      <point x="-357" y="932" type="curve" smooth="yes"/>
      <point x="-415" y="932" type="line" smooth="yes"/>
      <point x="-427" y="932"/>
      <point x="-434" y="924"/>
      <point x="-434" y="912" type="curve" smooth="yes"/>
    </contour>
    <contour>
      <point x="-213" y="822" type="line" smooth="yes"/>
      <point x="-213" y="810"/>
      <point x="-205" y="803"/>
      <point x="-194" y="803" type="curve" smooth="yes"/>
      <point x="-137" y="803" type="line" smooth="yes"/>
      <point x="-126" y="803"/>
      <point x="-118" y="809"/>
      <point x="-118" y="822" type="curve" smooth="yes"/>
      <point x="-118" y="912" type="line" smooth="yes"/>
      <point x="-118" y="923"/>
      <point x="-125" y="932"/>
      <point x="-137" y="932" type="curve" smooth="yes"/>
      <point x="-194" y="932" type="line" smooth="yes"/>
      <point x="-207" y="932"/>
      <point x="-213" y="924"/>
      <point x="-213" y="912" type="curve" smooth="yes"/>
    </contour>
    <contour>
      <point x="-269" y="810" type="move" name="_top"/>
    </contour>
  </outline>
</glyph>
<glyph name="dollar.smcp" format="1">
  <advance width="513"/>
  <outline>
    <contour>
      <point x="210" y="546" type="line"/>
      <point x="276" y="546" type="line"/>
      <point x="276" y="624" type="line"/>
      <point x="210" y="624" type="line"/>
    </contour>
    <contour>
      <point x="210" y="7" type="line"/>
      <point x="210" y="-68" type="line"/>
      <point x="276" y="-68" type="line"/>
      <point x="276" y="7" type="line"/>
    </contour>
    <component base="S.smcp"/>
  </outline>
</glyph>
<glyph name="dotbelowcomb" format="1">
  <note>
    GF Latin Plus glyph
  </note>
  <outline>
    <contour>
      <point x="-319" y="-201" type="line" smooth="yes"/>
      <point x="-319" y="-213"/>
      <point x="-311" y="-220"/>
      <point x="-300" y="-220" type="curve" smooth="yes"/>
      <point x="-242" y="-220" type="line" smooth="yes"/>
      <point x="-231" y="-220"/>
      <point x="-224" y="-214"/>
      <point x="-224" y="-201" type="curve" smooth="yes"/>
      <point x="-224" y="-111" type="line" smooth="yes"/>
      <point x="-224" y="-100"/>
      <point x="-230" y="-91"/>
      <point x="-242" y="-91" type="curve" smooth="yes"/>
      <point x="-300" y="-91" type="line" smooth="yes"/>
      <point x="-312" y="-91"/>
      <point x="-319" y="-99"/>
      <point x="-319" y="-111" type="curve" smooth="yes"/>
    </contour>
    <contour>
      <point x="-267" y="-150" type="move" name="_bottom"/>
    </contour>
  </outline>
</glyph>
<glyph name="exclam.smcp" format="1">
  <advance width="243"/>
  <outline>
    <contour>
      <point x="63" y="559" type="line"/>
      <point x="77" y="177" type="line"/>
      <point x="165" y="177" type="line"/>
      <point x="182" y="559" type="line"/>
    </contour>
    <component base="period" xOffset="10"/>
  </outline>
</glyph>
<glyph name="f.salt" format="1">
  <advance width="357"/>
  <outline>
    <contour>
      <point x="65" y="0" type="line"/>
      <point x="189" y="0" type="line"/>
      <point x="189" y="436" type="line"/>
      <point x="330" y="436" type="line"/>
      <point x="330" y="536" type="line"/>
      <point x="189" y="536" type="line"/>
      <point x="189" y="587" type="line" smooth="yes"/>
      <point x="189" y="642"/>
      <point x="203" y="668"/>
      <point x="258" y="668" type="curve" smooth="yes"/>
      <point x="343" y="668" type="line"/>
      <point x="343" y="756" type="line"/>
      <point x="318" y="762"/>
      <point x="281" y="769"/>
      <point x="235" y="769" type="curve" smooth="yes"/>
      <point x="110" y="769"/>
      <point x="65" y="709"/>
      <point x="65" y="581" type="curve" smooth="yes"/>
    </contour>
    <contour>
      <point x="226" y="868" type="move" name="top"/>
    </contour>
  </outline>
</glyph>
<glyph name="five.tnum" format="1">
  <advance width="609"/>
  <outline>
    <contour>
      <point x="78" y="9" type="line"/>
      <point x="154" y="1"/>
      <point x="248" y="-5"/>
      <point x="333" y="-5" type="curve" smooth="yes"/>
      <point x="485" y="-5"/>
      <point x="575" y="51"/>
      <point x="575" y="178" type="curve" smooth="yes"/>
      <point x="575" y="287" type="line" smooth="yes"/>
      <point x="575" y="384"/>
      <point x="516" y="458"/>
      <point x="401" y="458" type="curve" smooth="yes"/>
      <point x="318" y="458" type="line" smooth="yes"/>
      <point x="267" y="458"/>
      <point x="228" y="441"/>
      <point x="210" y="418" type="curve"/>
      <point x="219" y="627" type="line"/>
      <point x="548" y="627" type="line"/>
      <point x="548" y="738" type="line"/>
      <point x="113" y="738" type="line"/>
      <point x="92" y="288" type="line"/>
      <point x="209" y="288" type="line"/>
      <point x="217" y="332"/>
      <point x="243" y="353"/>
      <point x="293" y="353" type="curve" smooth="yes"/>
      <point x="358" y="353" type="line" smooth="yes"/>
      <point x="422" y="353"/>
      <point x="451" y="319"/>
      <point x="451" y="265" type="curve" smooth="yes"/>
      <point x="451" y="203" type="line" smooth="yes"/>
      <point x="451" y="150"/>
      <point x="416" y="106"/>
      <point x="337" y="106" type="curve" smooth="yes"/>
      <point x="78" y="106" type="line"/>
    </contour>
  </outline>
</glyph>
<glyph name="four.smcp" format="1">
  <advance width="520"/>
  <outline>
    <contour>
      <point x="30" y="171" type="line"/>
      <point x="53" y="119" type="line"/>
      <point x="313" y="119" type="line"/>
      <point x="313" y="0" type="line"/>
      <point x="431" y="0" type="line"/>
      <point x="431" y="119" type="line"/>
      <point x="492" y="137" type="line"/>
      <point x="492" y="214" type="line"/>
      <point x="431" y="214" type="line"/>
      <point x="431" y="388" type="line"/>
      <point x="340" y="388" type="line"/>
      <point x="313" y="307" type="line"/>
      <point x="313" y="214" type="line"/>
      <point x="170" y="214" type="line"/>
      <point x="338" y="560" type="line"/>
      <point x="218" y="560" type="line"/>
    </contour>
  </outline>
</glyph>
<glyph name="franc.smcp" format="1">
  <advance width="513"/>
  <outline>
    <contour>
      <point x="120" y="0" type="line"/>
      <point x="238" y="0" type="line"/>
      <point x="238" y="248" type="line"/>
      <point x="414" y="252" type="line"/>
      <point x="414" y="339" type="line"/>
      <point x="238" y="343" type="line"/>
      <point x="238" y="412" type="line" smooth="yes"/>
      <point x="238" y="438"/>
      <point x="254" y="457"/>
      <point x="287" y="457" type="curve" smooth="yes"/>
      <point x="451" y="457" type="line"/>
      <point x="451" y="550" type="line"/>
      <point x="400" y="556"/>
      <point x="282" y="560"/>
      <point x="255" y="560" type="curve" smooth="yes"/>
      <point x="192" y="560"/>
      <point x="120" y="533"/>
      <point x="120" y="437" type="curve" smooth="yes"/>
    </contour>
    <contour>
      <point x="58" y="91" type="line"/>
      <point x="120" y="88" type="line"/>
      <point x="238" y="88" type="line"/>
      <point x="398" y="91" type="line"/>
      <point x="398" y="167" type="line"/>
      <point x="238" y="172" type="line"/>
      <point x="120" y="172" type="line"/>
      <point x="58" y="167" type="line"/>
    </contour>
  </outline>
</glyph>
<glyph name="guarani.smcp" format="1">
  <advance width="513"/>
  <outline>
    <contour>
      <point x="302" y="-67" type="line"/>
      <point x="302" y="600" type="line"/>
      <point x="248" y="600" type="line"/>
      <point x="248" y="-67" type="line"/>
    </contour>
    <contour>
      <point x="36" y="278" type="curve" smooth="yes"/>
      <point x="36" y="107"/>
      <point x="72" y="-4"/>
      <point x="220" y="-4" type="curve" smooth="yes"/>
      <point x="289" y="-4"/>
      <point x="353" y="20"/>
      <point x="384" y="38" type="curve"/>
      <point x="401" y="0" type="line"/>
      <point x="477" y="0" type="line"/>
      <point x="477" y="318" type="line"/>
      <point x="377" y="318" type="line"/>
      <point x="377" y="115" type="line"/>
      <point x="352" y="107"/>
      <point x="306" y="99"/>
      <point x="258" y="99" type="curve" smooth="yes"/>
      <point x="171" y="99"/>
      <point x="143" y="133"/>
      <point x="143" y="278" type="curve" smooth="yes"/>
      <point x="143" y="416"/>
      <point x="165" y="461"/>
      <point x="281" y="461" type="curve" smooth="yes"/>
      <point x="355" y="461"/>
      <point x="426" y="455"/>
      <point x="460" y="450" type="curve"/>
      <point x="460" y="536" type="line"/>
      <point x="399" y="551"/>
      <point x="342" y="561"/>
      <point x="260" y="561" type="curve" smooth="yes"/>
      <point x="77" y="561"/>
      <point x="36" y="456"/>
    </contour>
  </outline>
</glyph>
<glyph name="hookabovecomb" format="1">
  <note>
    GF Latin Plus glyph
  </note>
  <outline>
    <contour>
      <point x="-361" y="726" type="line"/>
      <point x="-350" y="730"/>
      <point x="-338" y="732"/>
      <point x="-327" y="732" type="curve" smooth="yes"/>
      <point x="-299" y="732"/>
      <point x="-289" y="720"/>
      <point x="-289" y="699" type="curve" smooth="yes"/>
      <point x="-289" y="681"/>
      <point x="-299" y="663"/>
      <point x="-335" y="652" type="curve"/>
      <point x="-335" y="597" type="line"/>
      <point x="-257" y="619"/>
      <point x="-223" y="653"/>
      <point x="-223" y="703" type="curve" smooth="yes"/>
      <point x="-223" y="753"/>
      <point x="-252" y="784"/>
      <point x="-311" y="784" type="curve" smooth="yes"/>
      <point x="-330" y="784"/>
      <point x="-346" y="781"/>
      <point x="-361" y="776" type="curve"/>
    </contour>
    <contour>
      <point x="-310" y="650" type="move" name="_top"/>
    </contour>
  </outline>
</glyph>
<glyph name="horncomb.case" format="1">
  <note>
    GF Latin Plus glyph
  </note>
  <outline>
    <contour>
      <point x="-249" y="671" type="line"/>
      <point x="-150" y="671" type="line" smooth="yes"/>
      <point x="-70" y="671"/>
      <point x="-11" y="726"/>
      <point x="-11" y="850" type="curve"/>
      <point x="-97" y="850" type="line"/>
      <point x="-97" y="766"/>
      <point x="-126" y="738"/>
      <point x="-171" y="738" type="curve" smooth="yes"/>
      <point x="-249" y="738" type="line"/>
    </contour>
    <contour>
      <point x="-281" y="810" type="move" name="_top"/>
    </contour>
  </outline>
</glyph>
<glyph name="horncomb" format="1">
  <note>
    GF Latin Plus glyph
  </note>
  <outline>
    <contour>
      <point x="-260" y="468" type="line"/>
      <point x="-154" y="468" type="line" smooth="yes"/>
      <point x="-74" y="468"/>
      <point x="-15" y="524"/>
      <point x="-15" y="647" type="curve"/>
      <point x="-101" y="647" type="line"/>
      <point x="-101" y="564"/>
      <point x="-130" y="536"/>
      <point x="-175" y="536" type="curve" smooth="yes"/>
      <point x="-260" y="536" type="line"/>
    </contour>
    <contour>
      <point x="-281" y="650" type="move" name="_top"/>
    </contour>
  </outline>
</glyph>
<glyph name="kip.smcp" format="1">
  <advance width="513"/>
  <outline>
    <contour>
      <point x="24" y="225" type="line"/>
      <point x="468" y="225" type="line"/>
      <point x="468" y="330" type="line"/>
      <point x="24" y="330" type="line"/>
    </contour>
    <contour>
      <point x="68" y="0" type="line"/>
      <point x="186" y="0" type="line"/>
      <point x="186" y="228" type="line"/>
      <point x="251" y="228" type="line"/>
      <point x="361" y="0" type="line"/>
      <point x="486" y="0" type="line"/>
      <point x="343" y="279" type="line"/>
      <point x="480" y="560" type="line"/>
      <point x="357" y="560" type="line"/>
      <point x="251" y="328" type="line"/>
      <point x="186" y="328" type="line"/>
      <point x="186" y="560" type="line"/>
      <point x="68" y="560" type="line"/>
    </contour>
  </outline>
</glyph>
<glyph name="m.salt" format="1">
  <advance width="901"/>
  <outline>
    <contour>
      <point x="63" y="0" type="line"/>
      <point x="187" y="0" type="line"/>
      <point x="187" y="404" type="line"/>
      <point x="230" y="425"/>
      <point x="268" y="433"/>
      <point x="309" y="433" type="curve" smooth="yes"/>
      <point x="363" y="433"/>
      <point x="398" y="398"/>
      <point x="398" y="342" type="curve" smooth="yes"/>
      <point x="398" y="0" type="line"/>
      <point x="522" y="0" type="line"/>
      <point x="522" y="339" type="line" smooth="yes"/>
      <point x="522" y="358"/>
      <point x="519" y="378"/>
      <point x="515" y="392" type="curve"/>
      <point x="543" y="415"/>
      <point x="594" y="433"/>
      <point x="646" y="433" type="curve" smooth="yes"/>
      <point x="699" y="433"/>
      <point x="733" y="398"/>
      <point x="733" y="342" type="curve" smooth="yes"/>
      <point x="733" y="0" type="line"/>
      <point x="857" y="0" type="line"/>
      <point x="857" y="352" type="line" smooth="yes"/>
      <point x="857" y="466"/>
      <point x="815" y="545"/>
      <point x="683" y="545" type="curve" smooth="yes"/>
      <point x="611" y="545"/>
      <point x="530" y="522"/>
      <point x="478" y="487" type="curve"/>
      <point x="438" y="525"/>
      <point x="394" y="545"/>
      <point x="317" y="545" type="curve" smooth="yes"/>
      <point x="217" y="545"/>
      <point x="152" y="526"/>
      <point x="63" y="485" type="curve"/>
    </contour>
    <contour>
      <point x="472" y="650" type="move" name="top"/>
    </contour>
    <contour>
      <point x="460" y="-150" type="move" name="bottom"/>
    </contour>
  </outline>
</glyph>
<glyph name="manat.smcp" format="1">
  <advance width="513"/>
  <outline>
    <contour>
      <point x="283" y="60" type="line"/>
      <point x="283" y="598" type="line"/>
      <point x="230" y="598" type="line"/>
      <point x="230" y="60" type="line"/>
    </contour>
    <contour>
      <point x="256" y="534" type="curve" smooth="yes"/>
      <point x="72" y="534"/>
      <point x="41" y="307"/>
      <point x="33" y="0" type="curve"/>
      <point x="140" y="0" type="line"/>
      <point x="146" y="211" type="line" smooth="yes"/>
      <point x="150" y="312"/>
      <point x="167" y="434"/>
      <point x="256" y="434" type="curve" smooth="yes"/>
      <point x="345" y="434"/>
      <point x="362" y="312"/>
      <point x="367" y="211" type="curve" smooth="yes"/>
      <point x="373" y="0" type="line"/>
      <point x="480" y="0" type="line"/>
      <point x="472" y="307"/>
      <point x="440" y="534"/>
    </contour>
  </outline>
</glyph>
<glyph name="naira.smcp" format="1">
  <advance width="513"/>
  <outline>
    <contour>
      <point x="79" y="0" type="line"/>
      <point x="174" y="0" type="line"/>
      <point x="174" y="350" type="line"/>
      <point x="356" y="0" type="line"/>
      <point x="433" y="0" type="line"/>
      <point x="433" y="562" type="line"/>
      <point x="339" y="562" type="line"/>
      <point x="339" y="213" type="line"/>
      <point x="156" y="562" type="line"/>
      <point x="79" y="562" type="line"/>
    </contour>
    <contour>
      <point x="218" y="366" type="line"/>
      <point x="476" y="366" type="line"/>
      <point x="476" y="422" type="line"/>
      <point x="187" y="422" type="line"/>
    </contour>
    <contour>
      <point x="36" y="366" type="line"/>
      <point x="123" y="366" type="line"/>
      <point x="123" y="422" type="line"/>
      <point x="36" y="422" type="line"/>
    </contour>
    <contour>
      <point x="406" y="140" type="line"/>
      <point x="476" y="140" type="line"/>
      <point x="476" y="197" type="line"/>
      <point x="406" y="197" type="line"/>
    </contour>
    <contour>
      <point x="36" y="140" type="line"/>
      <point x="343" y="140" type="line"/>
      <point x="306" y="197" type="line"/>
      <point x="36" y="197" type="line"/>
    </contour>
  </outline>
</glyph>
<glyph name="nine.smcp" format="1">
  <advance width="512"/>
  <outline>
    <contour>
      <point x="348" y="312" type="curve"/>
      <point x="240" y="312" type="line" smooth="yes"/>
      <point x="187" y="312"/>
      <point x="157" y="324"/>
      <point x="157" y="373" type="curve" smooth="yes"/>
      <point x="157" y="410" type="line" smooth="yes"/>
      <point x="157" y="452"/>
      <point x="184" y="464"/>
      <point x="217" y="464" type="curve" smooth="yes"/>
      <point x="265" y="464" type="line" smooth="yes"/>
      <point x="323" y="464"/>
      <point x="348" y="433"/>
    </contour>
    <contour>
      <point x="460" y="288" type="curve" smooth="yes"/>
      <point x="460" y="508"/>
      <point x="398" y="564"/>
      <point x="282" y="564" type="curve" smooth="yes"/>
      <point x="196" y="564" type="line" smooth="yes"/>
      <point x="110" y="564"/>
      <point x="50" y="527"/>
      <point x="50" y="432" type="curve" smooth="yes"/>
      <point x="50" y="352" type="line" smooth="yes"/>
      <point x="50" y="275"/>
      <point x="89" y="229"/>
      <point x="202" y="229" type="curve" smooth="yes"/>
      <point x="262" y="229"/>
      <point x="306" y="235"/>
      <point x="348" y="248" type="curve"/>
      <point x="348" y="148"/>
      <point x="311" y="96"/>
      <point x="225" y="96" type="curve" smooth="yes"/>
      <point x="85" y="96" type="line"/>
      <point x="85" y="8" type="line"/>
      <point x="128" y="0"/>
      <point x="184" y="-4"/>
      <point x="236" y="-4" type="curve" smooth="yes"/>
      <point x="377" y="-4"/>
      <point x="460" y="69"/>
    </contour>
  </outline>
</glyph>
<glyph name="nine.tnum" format="1">
  <advance width="609"/>
  <outline>
    <contour>
      <point x="435" y="410" type="curve"/>
      <point x="288" y="410" type="line" smooth="yes"/>
      <point x="216" y="410"/>
      <point x="179" y="424"/>
      <point x="179" y="491" type="curve" smooth="yes"/>
      <point x="179" y="550" type="line" smooth="yes"/>
      <point x="179" y="613"/>
      <point x="212" y="632"/>
      <point x="261" y="632" type="curve" smooth="yes"/>
      <point x="320" y="632" type="line" smooth="yes"/>
      <point x="397" y="632"/>
      <point x="435" y="587"/>
    </contour>
    <contour>
      <point x="558" y="376" type="curve" smooth="yes"/>
      <point x="558" y="669"/>
      <point x="481" y="743"/>
      <point x="343" y="743" type="curve" smooth="yes"/>
      <point x="234" y="743" type="line" smooth="yes"/>
      <point x="131" y="743"/>
      <point x="55" y="696"/>
      <point x="55" y="574" type="curve" smooth="yes"/>
      <point x="55" y="469" type="line" smooth="yes"/>
      <point x="55" y="361"/>
      <point x="113" y="304"/>
      <point x="255" y="304" type="curve" smooth="yes"/>
      <point x="318" y="304"/>
      <point x="384" y="307"/>
      <point x="435" y="319" type="curve"/>
      <point x="435" y="177"/>
      <point x="381" y="106"/>
      <point x="276" y="106" type="curve" smooth="yes"/>
      <point x="99" y="106" type="line"/>
      <point x="99" y="9" type="line"/>
      <point x="152" y="0"/>
      <point x="223" y="-5"/>
      <point x="286" y="-5" type="curve" smooth="yes"/>
      <point x="457" y="-5"/>
      <point x="558" y="95"/>
    </contour>
  </outline>
</glyph>
<glyph name="ordfeminine.smcp" format="1">
  <advance width="409"/>
  <outline>
    <contour>
      <point x="154" y="469" type="line"/>
      <point x="204" y="634" type="line"/>
      <point x="253" y="469" type="line"/>
    </contour>
    <contour>
      <point x="17" y="324" type="line"/>
      <point x="113" y="324" type="line"/>
      <point x="137" y="395" type="line"/>
      <point x="271" y="395" type="line"/>
      <point x="295" y="324" type="line"/>
      <point x="392" y="324" type="line"/>
      <point x="264" y="709" type="line"/>
      <point x="145" y="709" type="line"/>
    </contour>
    <contour>
      <point x="14" y="205" type="line"/>
      <point x="395" y="205" type="line"/>
      <point x="395" y="265" type="line"/>
      <point x="14" y="265" type="line"/>
    </contour>
  </outline>
</glyph>
<glyph name="ordmasculine.smcp" format="1">
  <advance width="418"/>
  <outline>
    <contour>
      <point x="130" y="516" type="curve" smooth="yes"/>
      <point x="130" y="616"/>
      <point x="148" y="633"/>
      <point x="209" y="633" type="curve" smooth="yes"/>
      <point x="271" y="633"/>
      <point x="289" y="616"/>
      <point x="289" y="516" type="curve" smooth="yes"/>
      <point x="289" y="421"/>
      <point x="271" y="400"/>
      <point x="209" y="400" type="curve" smooth="yes"/>
      <point x="146" y="400"/>
      <point x="130" y="421"/>
    </contour>
    <contour>
      <point x="34" y="516" type="curve" smooth="yes"/>
      <point x="34" y="353"/>
      <point x="93" y="321"/>
      <point x="209" y="321" type="curve" smooth="yes"/>
      <point x="325" y="321"/>
      <point x="385" y="353"/>
      <point x="385" y="516" type="curve" smooth="yes"/>
      <point x="385" y="681"/>
      <point x="326" y="713"/>
      <point x="209" y="713" type="curve" smooth="yes"/>
      <point x="94" y="713"/>
      <point x="34" y="681"/>
    </contour>
    <contour>
      <point x="21" y="205" type="line"/>
      <point x="397" y="205" type="line"/>
      <point x="397" y="265" type="line"/>
      <point x="21" y="265" type="line"/>
    </contour>
  </outline>
</glyph>
<glyph name="p.superior" format="1">
  <advance width="442"/>
  <outline>
    <contour>
      <point x="151" y="381" type="curve"/>
      <point x="151" y="570" type="line"/>
      <point x="169" y="581"/>
      <point x="197" y="593"/>
      <point x="228" y="593" type="curve" smooth="yes"/>
      <point x="271" y="593"/>
      <point x="302" y="564"/>
      <point x="302" y="471" type="curve" smooth="yes"/>
      <point x="302" y="384"/>
      <point x="265" y="361"/>
      <point x="226" y="361" type="curve" smooth="yes"/>
      <point x="200" y="361"/>
      <point x="171" y="370"/>
    </contour>
    <contour>
      <point x="42" y="93" type="line"/>
      <point x="151" y="93" type="line"/>
      <point x="151" y="301" type="line"/>
      <point x="185" y="283"/>
      <point x="229" y="275"/>
      <point x="268" y="275" type="curve" smooth="yes"/>
      <point x="377" y="275"/>
      <point x="411" y="349"/>
      <point x="411" y="476" type="curve" smooth="yes"/>
      <point x="411" y="600"/>
      <point x="368" y="678"/>
      <point x="269" y="678" type="curve" smooth="yes"/>
      <point x="221" y="678"/>
      <point x="181" y="657"/>
      <point x="151" y="634" type="curve"/>
      <point x="134" y="672" type="line"/>
      <point x="42" y="672" type="line"/>
    </contour>
  </outline>
</glyph>
<glyph name="perthousand.smcp" format="1">
  <advance width="1130"/>
  <outline>
    <contour>
      <point x="870" y="119" type="curve" smooth="yes"/>
      <point x="870" y="176" type="line" smooth="yes"/>
      <point x="870" y="213"/>
      <point x="887" y="220"/>
      <point x="918" y="220" type="curve" smooth="yes"/>
      <point x="970" y="220" type="line" smooth="yes"/>
      <point x="1003" y="220"/>
      <point x="1016" y="210"/>
      <point x="1016" y="176" type="curve" smooth="yes"/>
      <point x="1016" y="119" type="line" smooth="yes"/>
      <point x="1016" y="88"/>
      <point x="1005" y="74"/>
      <point x="968" y="74" type="curve" smooth="yes"/>
      <point x="916" y="74" type="line" smooth="yes"/>
      <point x="880" y="74"/>
      <point x="870" y="89"/>
    </contour>
    <contour>
      <point x="794" y="102" type="line" smooth="yes"/>
      <point x="794" y="38"/>
      <point x="823" y="2"/>
      <point x="902" y="2" type="curve" smooth="yes"/>
      <point x="982" y="2" type="line" smooth="yes"/>
      <point x="1064" y="2"/>
      <point x="1092" y="38"/>
      <point x="1092" y="102" type="curve" smooth="yes"/>
      <point x="1092" y="192" type="line" smooth="yes"/>
      <point x="1092" y="256"/>
      <point x="1063" y="292"/>
      <point x="984" y="292" type="curve" smooth="yes"/>
      <point x="903" y="292" type="line" smooth="yes"/>
      <point x="822" y="292"/>
      <point x="794" y="256"/>
      <point x="794" y="192" type="curve" smooth="yes"/>
    </contour>
    <contour>
      <point x="538" y="119" type="curve" smooth="yes"/>
      <point x="538" y="176" type="line" smooth="yes"/>
      <point x="538" y="213"/>
      <point x="555" y="220"/>
      <point x="586" y="220" type="curve" smooth="yes"/>
      <point x="637" y="220" type="line" smooth="yes"/>
      <point x="670" y="220"/>
      <point x="683" y="210"/>
      <point x="683" y="176" type="curve" smooth="yes"/>
      <point x="683" y="119" type="line" smooth="yes"/>
      <point x="683" y="88"/>
      <point x="672" y="74"/>
      <point x="635" y="74" type="curve" smooth="yes"/>
      <point x="584" y="74" type="line" smooth="yes"/>
      <point x="548" y="74"/>
      <point x="538" y="89"/>
    </contour>
    <contour>
      <point x="462" y="102" type="line" smooth="yes"/>
      <point x="462" y="38"/>
      <point x="490" y="2"/>
      <point x="569" y="2" type="curve" smooth="yes"/>
      <point x="650" y="2" type="line" smooth="yes"/>
      <point x="732" y="2"/>
      <point x="760" y="38"/>
      <point x="760" y="102" type="curve" smooth="yes"/>
      <point x="760" y="192" type="line" smooth="yes"/>
      <point x="760" y="256"/>
      <point x="731" y="292"/>
      <point x="652" y="292" type="curve" smooth="yes"/>
      <point x="570" y="292" type="line" smooth="yes"/>
      <point x="489" y="292"/>
      <point x="462" y="256"/>
      <point x="462" y="192" type="curve" smooth="yes"/>
    </contour>
    <contour>
      <point x="177" y="0" type="line"/>
      <point x="258" y="0" type="line"/>
      <point x="614" y="554" type="line"/>
      <point x="538" y="554" type="line"/>
    </contour>
    <contour>
      <point x="115" y="381" type="curve" smooth="yes"/>
      <point x="115" y="437" type="line" smooth="yes"/>
      <point x="115" y="475"/>
      <point x="132" y="482"/>
      <point x="162" y="482" type="curve" smooth="yes"/>
      <point x="214" y="482" type="line" smooth="yes"/>
      <point x="248" y="482"/>
      <point x="260" y="472"/>
      <point x="260" y="437" type="curve" smooth="yes"/>
      <point x="260" y="381" type="line" smooth="yes"/>
      <point x="260" y="350"/>
      <point x="250" y="336"/>
      <point x="213" y="336" type="curve" smooth="yes"/>
      <point x="160" y="336" type="line" smooth="yes"/>
      <point x="124" y="336"/>
      <point x="115" y="351"/>
    </contour>
    <contour>
      <point x="38" y="364" type="line" smooth="yes"/>
      <point x="38" y="300"/>
      <point x="67" y="264"/>
      <point x="146" y="264" type="curve" smooth="yes"/>
      <point x="227" y="264" type="line" smooth="yes"/>
      <point x="308" y="264"/>
      <point x="336" y="300"/>
      <point x="336" y="364" type="curve" smooth="yes"/>
      <point x="336" y="454" type="line" smooth="yes"/>
      <point x="336" y="518"/>
      <point x="307" y="554"/>
      <point x="229" y="554" type="curve" smooth="yes"/>
      <point x="148" y="554" type="line" smooth="yes"/>
      <point x="66" y="554"/>
      <point x="38" y="518"/>
      <point x="38" y="454" type="curve" smooth="yes"/>
    </contour>
  </outline>
</glyph>
<glyph name="ringhalfright" format="1">
  <advance width="204"/>
  <outline>
    <contour>
      <point x="25" y="758" type="line"/>
      <point x="80" y="758"/>
      <point x="105" y="742"/>
      <point x="105" y="697" type="curve" smooth="yes"/>
      <point x="105" y="653"/>
      <point x="80" y="637"/>
      <point x="25" y="637" type="curve"/>
      <point x="25" y="584" type="line"/>
      <point x="121" y="584"/>
      <point x="173" y="612"/>
      <point x="173" y="697" type="curve" smooth="yes"/>
      <point x="173" y="782"/>
      <point x="121" y="811"/>
      <point x="25" y="811" type="curve"/>
    </contour>
  </outline>
</glyph>
<glyph name="ruble.smcp" format="1">
  <advance width="513"/>
  <outline>
    <contour>
      <point x="154" y="77" type="line"/>
      <point x="402" y="77" type="line"/>
      <point x="402" y="133" type="line"/>
      <point x="161" y="133" type="line"/>
    </contour>
    <contour>
      <point x="22" y="77" type="line"/>
      <point x="147" y="77" type="line"/>
      <point x="147" y="133" type="line"/>
      <point x="22" y="133" type="line"/>
    </contour>
    <contour>
      <point x="201" y="295" type="line"/>
      <point x="201" y="460" type="line"/>
      <point x="272" y="460" type="line" smooth="yes"/>
      <point x="321" y="460"/>
      <point x="342" y="436"/>
      <point x="342" y="379" type="curve" smooth="yes"/>
      <point x="342" y="323"/>
      <point x="324" y="295"/>
      <point x="272" y="295" type="curve" smooth="yes"/>
    </contour>
    <contour>
      <point x="89" y="0" type="line"/>
      <point x="201" y="0" type="line"/>
      <point x="201" y="206" type="line"/>
      <point x="212" y="204"/>
      <point x="272" y="199"/>
      <point x="290" y="199" type="curve" smooth="yes"/>
      <point x="373" y="199"/>
      <point x="454" y="231"/>
      <point x="454" y="379" type="curve" smooth="yes"/>
      <point x="454" y="535"/>
      <point x="368" y="560"/>
      <point x="288" y="560" type="curve" smooth="yes"/>
      <point x="89" y="560" type="line"/>
    </contour>
    <contour>
      <point x="22" y="239" type="line"/>
      <point x="146" y="239" type="line"/>
      <point x="146" y="295" type="line"/>
      <point x="22" y="295" type="line"/>
    </contour>
  </outline>
</glyph>
<glyph name="s.superior" format="1">
  <advance width="375"/>
  <outline>
    <contour>
      <point x="26" y="539" type="line" smooth="yes"/>
      <point x="26" y="461"/>
      <point x="79" y="438"/>
      <point x="148" y="438" type="curve" smooth="yes"/>
      <point x="211" y="438" type="line" smooth="yes"/>
      <point x="243" y="438"/>
      <point x="256" y="425"/>
      <point x="256" y="405" type="curve" smooth="yes"/>
      <point x="256" y="390" type="line" smooth="yes"/>
      <point x="256" y="359"/>
      <point x="236" y="355"/>
      <point x="206" y="355" type="curve" smooth="yes"/>
      <point x="33" y="355" type="line"/>
      <point x="33" y="293" type="line"/>
      <point x="66" y="283"/>
      <point x="138" y="276"/>
      <point x="188" y="276" type="curve" smooth="yes"/>
      <point x="292" y="276"/>
      <point x="349" y="301"/>
      <point x="349" y="380" type="curve" smooth="yes"/>
      <point x="349" y="415" type="line" smooth="yes"/>
      <point x="349" y="477"/>
      <point x="314" y="512"/>
      <point x="232" y="512" type="curve" smooth="yes"/>
      <point x="167" y="512" type="line" smooth="yes"/>
      <point x="138" y="512"/>
      <point x="119" y="516"/>
      <point x="119" y="544" type="curve" smooth="yes"/>
      <point x="119" y="559" type="line" smooth="yes"/>
      <point x="119" y="588"/>
      <point x="137" y="596"/>
      <point x="168" y="596" type="curve" smooth="yes"/>
      <point x="331" y="596" type="line"/>
      <point x="331" y="658" type="line"/>
      <point x="302" y="667"/>
      <point x="235" y="675"/>
      <point x="186" y="675" type="curve" smooth="yes"/>
      <point x="65" y="675"/>
      <point x="26" y="636"/>
      <point x="26" y="562" type="curve" smooth="yes"/>
    </contour>
    <contour>
      <point x="183" y="754" type="move" name="top"/>
    </contour>
    <contour>
      <point x="183" y="170" type="move" name="bottom"/>
    </contour>
  </outline>
</glyph>
<glyph name="six.smcp" format="1">
  <advance width="512"/>
  <outline>
    <contour>
      <point x="165" y="248" type="curve"/>
      <point x="268" y="248" type="line" smooth="yes"/>
      <point x="320" y="248"/>
      <point x="357" y="237"/>
      <point x="357" y="187" type="curve" smooth="yes"/>
      <point x="357" y="150" type="line" smooth="yes"/>
      <point x="357" y="106"/>
      <point x="328" y="96"/>
      <point x="295" y="96" type="curve" smooth="yes"/>
      <point x="246" y="96" type="line" smooth="yes"/>
      <point x="188" y="96"/>
      <point x="165" y="127"/>
    </contour>
    <contour>
      <point x="53" y="273" type="curve" smooth="yes"/>
      <point x="53" y="53"/>
      <point x="115" y="-3"/>
      <point x="231" y="-3" type="curve" smooth="yes"/>
      <point x="317" y="-3" type="line" smooth="yes"/>
      <point x="403" y="-3"/>
      <point x="464" y="34"/>
      <point x="464" y="129" type="curve" smooth="yes"/>
      <point x="464" y="209" type="line" smooth="yes"/>
      <point x="464" y="285"/>
      <point x="423" y="331"/>
      <point x="311" y="331" type="curve" smooth="yes"/>
      <point x="249" y="331"/>
      <point x="207" y="325"/>
      <point x="165" y="312" type="curve"/>
      <point x="165" y="412"/>
      <point x="203" y="465"/>
      <point x="288" y="465" type="curve" smooth="yes"/>
      <point x="428" y="465" type="line"/>
      <point x="428" y="552" type="line"/>
      <point x="385" y="560"/>
      <point x="329" y="565"/>
      <point x="277" y="565" type="curve" smooth="yes"/>
      <point x="136" y="565"/>
      <point x="53" y="492"/>
    </contour>
  </outline>
</glyph>
<glyph name="six.tnum" format="1">
  <advance width="609"/>
  <outline>
    <contour>
      <point x="186" y="330" type="curve"/>
      <point x="333" y="330" type="line" smooth="yes"/>
      <point x="405" y="330"/>
      <point x="442" y="315"/>
      <point x="442" y="248" type="curve" smooth="yes"/>
      <point x="442" y="189" type="line" smooth="yes"/>
      <point x="442" y="127"/>
      <point x="409" y="107"/>
      <point x="360" y="107" type="curve" smooth="yes"/>
      <point x="301" y="107" type="line" smooth="yes"/>
      <point x="224" y="107"/>
      <point x="186" y="153"/>
    </contour>
    <contour>
      <point x="62" y="363" type="curve" smooth="yes"/>
      <point x="62" y="70"/>
      <point x="140" y="-4"/>
      <point x="277" y="-4" type="curve" smooth="yes"/>
      <point x="387" y="-4" type="line" smooth="yes"/>
      <point x="490" y="-4"/>
      <point x="565" y="43"/>
      <point x="565" y="166" type="curve" smooth="yes"/>
      <point x="565" y="271" type="line" smooth="yes"/>
      <point x="565" y="378"/>
      <point x="508" y="435"/>
      <point x="366" y="435" type="curve" smooth="yes"/>
      <point x="303" y="435"/>
      <point x="237" y="432"/>
      <point x="186" y="420" type="curve"/>
      <point x="186" y="562"/>
      <point x="239" y="633"/>
      <point x="345" y="633" type="curve" smooth="yes"/>
      <point x="521" y="633" type="line"/>
      <point x="521" y="730" type="line"/>
      <point x="468" y="739"/>
      <point x="397" y="744"/>
      <point x="335" y="744" type="curve" smooth="yes"/>
      <point x="163" y="744"/>
      <point x="62" y="644"/>
    </contour>
  </outline>
</glyph>
<glyph name="sterling.smcp" format="1">
  <advance width="513"/>
  <outline>
    <contour>
      <point x="59" y="0" type="line"/>
      <point x="460" y="0" type="line"/>
      <point x="460" y="100" type="line"/>
      <point x="251" y="100" type="line"/>
      <point x="251" y="239" type="line"/>
      <point x="397" y="247" type="line"/>
      <point x="397" y="308" type="line"/>
      <point x="251" y="318" type="line"/>
      <point x="251" y="388" type="line" smooth="yes"/>
      <point x="251" y="449"/>
      <point x="276" y="464"/>
      <point x="332" y="464" type="curve" smooth="yes"/>
      <point x="457" y="464" type="line"/>
      <point x="457" y="553" type="line"/>
      <point x="427" y="558"/>
      <point x="380" y="563"/>
      <point x="326" y="563" type="curve" smooth="yes"/>
      <point x="194" y="563"/>
      <point x="133" y="513"/>
      <point x="133" y="376" type="curve" smooth="yes"/>
      <point x="133" y="318" type="line"/>
      <point x="59" y="303" type="line"/>
      <point x="59" y="247" type="line"/>
      <point x="133" y="239" type="line"/>
      <point x="133" y="100" type="line"/>
      <point x="59" y="85" type="line"/>
    </contour>
  </outline>
</glyph>
<glyph name="t_t" format="1">
  <advance width="762"/>
  <outline>
    <contour>
      <point x="14" y="436" type="line"/>
      <point x="98" y="436" type="line"/>
      <point x="94" y="184" type="line" smooth="yes"/>
      <point x="91" y="48"/>
      <point x="142" y="0"/>
      <point x="258" y="0" type="curve" smooth="yes"/>
      <point x="347" y="0" type="line"/>
      <point x="347" y="91" type="line"/>
      <point x="280" y="98" type="line" smooth="yes"/>
      <point x="249" y="101"/>
      <point x="217" y="115"/>
      <point x="217" y="185" type="curve" smooth="yes"/>
      <point x="217" y="436" type="line"/>
      <point x="536" y="436" type="line"/>
      <point x="536" y="536" type="line"/>
      <point x="217" y="536" type="line"/>
      <point x="217" y="686" type="line"/>
      <point x="120" y="686" type="line"/>
      <point x="102" y="536" type="line"/>
      <point x="14" y="516" type="line"/>
    </contour>
    <component base="t" xOffset="381"/>
  </outline>
</glyph>
<glyph name="t_y" format="1">
  <advance width="940"/>
  <outline>
    <contour>
      <point x="353" y="436" type="line"/>
      <point x="401" y="436"/>
      <point x="424" y="415"/>
      <point x="438" y="363" type="curve" smooth="yes"/>
      <point x="506" y="137" type="line" smooth="yes"/>
      <point x="532" y="43"/>
      <point x="588" y="0"/>
      <point x="666" y="0" type="curve"/>
      <point x="601" y="-239" type="line"/>
      <point x="702" y="-239" type="line"/>
      <point x="751" y="-138" type="line"/>
      <point x="925" y="536" type="line"/>
      <point x="799" y="536" type="line"/>
      <point x="688" y="102" type="line"/>
      <point x="679" y="103"/>
      <point x="640" y="102"/>
      <point x="621" y="162" type="curve" smooth="yes"/>
      <point x="555" y="405" type="line" smooth="yes"/>
      <point x="533" y="504"/>
      <point x="470" y="536"/>
      <point x="353" y="536" type="curve"/>
    </contour>
    <component base="t"/>
  </outline>
</glyph>
<glyph name="two.smcp" format="1">
  <advance width="494"/>
  <outline>
    <contour>
      <point x="63" y="459" type="line"/>
      <point x="229" y="459" type="line" smooth="yes"/>
      <point x="295" y="459"/>
      <point x="317" y="435"/>
      <point x="317" y="394" type="curve" smooth="yes"/>
      <point x="317" y="351"/>
      <point x="295" y="318"/>
      <point x="248" y="276" type="curve" smooth="yes"/>
      <point x="49" y="89" type="line"/>
      <point x="49" y="0" type="line"/>
      <point x="453" y="0" type="line"/>
      <point x="453" y="100" type="line"/>
      <point x="205" y="100" type="line"/>
      <point x="340" y="226" type="line" smooth="yes"/>
      <point x="403" y="285"/>
      <point x="435" y="336"/>
      <point x="435" y="412" type="curve" smooth="yes"/>
      <point x="435" y="508"/>
      <point x="391" y="565"/>
      <point x="253" y="565" type="curve" smooth="yes"/>
      <point x="176" y="565"/>
      <point x="113" y="555"/>
      <point x="63" y="547" type="curve"/>
    </contour>
  </outline>
</glyph>
<glyph name="yen.smcp" format="1">
  <advance width="513"/>
  <outline>
    <contour>
      <point x="83" y="85" type="line"/>
      <point x="446" y="85" type="line"/>
      <point x="446" y="141" type="line"/>
      <point x="83" y="141" type="line"/>
    </contour>
    <contour>
      <point x="83" y="190" type="line"/>
      <point x="446" y="190" type="line"/>
      <point x="446" y="246" type="line"/>
      <point x="83" y="246" type="line"/>
    </contour>
    <component base="Y.smcp"/>
  </outline>
</glyph>
<glyph name="zero.smcp" format="1">
  <advance width="543"/>
  <outline>
    <contour>
      <point x="174" y="158" type="curve" smooth="yes"/>
      <point x="174" y="404" type="line" smooth="yes"/>
      <point x="174" y="444"/>
      <point x="196" y="465"/>
      <point x="236" y="465" type="curve" smooth="yes"/>
      <point x="309" y="465" type="line" smooth="yes"/>
      <point x="346" y="465"/>
      <point x="369" y="448"/>
      <point x="369" y="404" type="curve" smooth="yes"/>
      <point x="369" y="157" type="line" smooth="yes"/>
      <point x="369" y="117"/>
      <point x="348" y="97"/>
      <point x="304" y="97" type="curve" smooth="yes"/>
      <point x="240" y="97" type="line" smooth="yes"/>
      <point x="198" y="97"/>
      <point x="174" y="115"/>
    </contour>
    <contour>
      <point x="56" y="141" type="line" smooth="yes"/>
      <point x="56" y="47"/>
      <point x="112" y="-3"/>
      <point x="212" y="-3" type="curve" smooth="yes"/>
      <point x="335" y="-3" type="line" smooth="yes"/>
      <point x="431" y="-3"/>
      <point x="487" y="48"/>
      <point x="487" y="141" type="curve" smooth="yes"/>
      <point x="487" y="414" type="line" smooth="yes"/>
      <point x="487" y="509"/>
      <point x="436" y="565"/>
      <point x="336" y="565" type="curve" smooth="yes"/>
      <point x="212" y="565" type="line" smooth="yes"/>
      <point x="116" y="565"/>
      <point x="56" y="512"/>
      <point x="56" y="414" type="curve" smooth="yes"/>
    </contour>
  </outline>
</glyph>
<glyph name="zero.tnum" format="1">
  <advance width="609"/>
  <outline>
    <contour>
      <point x="174" y="200" type="curve" smooth="yes"/>
      <point x="174" y="541" type="line" smooth="yes"/>
      <point x="174" y="601"/>
      <point x="207" y="633"/>
      <point x="264" y="633" type="curve" smooth="yes"/>
      <point x="348" y="633" type="line" smooth="yes"/>
      <point x="403" y="633"/>
      <point x="435" y="606"/>
      <point x="435" y="541" type="curve" smooth="yes"/>
      <point x="435" y="200" type="line" smooth="yes"/>
      <point x="435" y="140"/>
      <point x="407" y="108"/>
      <point x="343" y="108" type="curve" smooth="yes"/>
      <point x="268" y="108" type="line" smooth="yes"/>
      <point x="208" y="108"/>
      <point x="174" y="137"/>
    </contour>
    <contour>
      <point x="50" y="182" type="line" smooth="yes"/>
      <point x="50" y="58"/>
      <point x="122" y="-4"/>
      <point x="240" y="-4" type="curve" smooth="yes"/>
      <point x="375" y="-4" type="line" smooth="yes"/>
      <point x="490" y="-4"/>
      <point x="559" y="59"/>
      <point x="559" y="182" type="curve" smooth="yes"/>
      <point x="559" y="553" type="line" smooth="yes"/>
      <point x="559" y="671"/>
      <point x="500" y="744"/>
      <point x="375" y="744" type="curve" smooth="yes"/>
      <point x="241" y="744" type="line" smooth="yes"/>
      <point x="125" y="744"/>
      <point x="50" y="678"/>
      <point x="50" y="553" type="curve" smooth="yes"/>
    </contour>
  </outline>
</glyph>
<glyph name="zero.tnum.zero" format="1">
  <advance width="609"/>
  <outline>
    <contour>
      <point x="417" y="668" type="line"/>
      <point x="120" y="75" type="line"/>
      <point x="191" y="75" type="line"/>
      <point x="488" y="668" type="line"/>
    </contour>
    <component base="zero.tnum"/>
  </outline>
</glyph>
<glyph name="zero.zero" format="1">
  <advance width="650"/>
  <note>
    GF Latin Plus glyph
  </note>
  <outline>
    <contour>
      <point x="434" y="668" type="line"/>
      <point x="136" y="75" type="line"/>
      <point x="208" y="75" type="line"/>
      <point x="505" y="668" type="line"/>
    </contour>
    <component base="zero"/>
  </outline>
</glyph>
<glyph name="zero.zero.smcp" format="1">
  <advance width="543"/>
  <outline>
    <contour>
      <point x="357" y="498" type="line"/>
      <point x="129" y="64" type="line"/>
      <point x="178" y="64" type="line"/>
      <point x="406" y="498" type="line"/>
    </contour>
    <component base="zero.smcp"/>
  </outline>
</glyph>
